G04 #@! TF.GenerationSoftware,KiCad,Pcbnew,(5.0-dev-4115-gdd04bcb)*
G04 #@! TF.CreationDate,2018-03-10T19:13:24-08:00*
G04 #@! TF.ProjectId,PCB-Condenser-Microphone-Backplate,5043422D436F6E64656E7365722D4D69,rev?*
G04 #@! TF.SameCoordinates,Original*
G04 #@! TF.FileFunction,Soldermask,Top*
G04 #@! TF.FilePolarity,Negative*
%FSLAX46Y46*%
G04 Gerber Fmt 4.6, Leading zero omitted, Abs format (unit mm)*
G04 Created by KiCad (PCBNEW (5.0-dev-4115-gdd04bcb)) date Saturday, March 10, 2018 at 07:13:24 PM*
%MOMM*%
%LPD*%
G01*
G04 APERTURE LIST*
%ADD10C,2.002000*%
%ADD11C,2.600000*%
%ADD12C,30.400000*%
G04 APERTURE END LIST*
D10*
X153000000Y-99500000D03*
X156500000Y-99500000D03*
X160000000Y-99500000D03*
X163500000Y-99500000D03*
D11*
X167500000Y-99500000D03*
X165088457Y-90500000D03*
X158500000Y-83911543D03*
X149500000Y-81500000D03*
X140500000Y-83911543D03*
X133911543Y-90500000D03*
X131500000Y-99500000D03*
X133911543Y-108500000D03*
X140500000Y-115088457D03*
X149500000Y-117500000D03*
X158500000Y-115088457D03*
X165088457Y-108500000D03*
D10*
X149500000Y-99500000D03*
X151250000Y-96468911D03*
X147750000Y-96468911D03*
X146000000Y-99500000D03*
X147750000Y-102531089D03*
X151250000Y-102531089D03*
X155562178Y-96000000D03*
X153000000Y-93437822D03*
X149500000Y-92500000D03*
X146000000Y-93437822D03*
X143437822Y-96000000D03*
X142500000Y-99500000D03*
X143437822Y-103000000D03*
X146000000Y-105562178D03*
X149500000Y-106500000D03*
X153000000Y-105562178D03*
X155562178Y-103000000D03*
X159366773Y-95908788D03*
X157543467Y-92750730D03*
X154750000Y-90406733D03*
X151323306Y-89159519D03*
X147676694Y-89159519D03*
X144250000Y-90406733D03*
X141456533Y-92750730D03*
X139633227Y-95908788D03*
X139000000Y-99500000D03*
X139633227Y-103091212D03*
X141456533Y-106249270D03*
X144250000Y-108593267D03*
X147676694Y-109840481D03*
X151323306Y-109840481D03*
X154750000Y-108593267D03*
X157543467Y-106249270D03*
X159366773Y-103091212D03*
X163022962Y-95876533D03*
X161624356Y-92500000D03*
X159399495Y-89600505D03*
X156500000Y-87375644D03*
X153123467Y-85977038D03*
X149500000Y-85500000D03*
X145876533Y-85977038D03*
X142500000Y-87375644D03*
X139600505Y-89600505D03*
X137375644Y-92500000D03*
X135977038Y-95876533D03*
X135500000Y-99500000D03*
X135977038Y-103123467D03*
X137375644Y-106500000D03*
X139600505Y-109399495D03*
X142500000Y-111624356D03*
X145876533Y-113022962D03*
X149500000Y-113500000D03*
X153123467Y-113022962D03*
X156500000Y-111624356D03*
X159399495Y-109399495D03*
X161624356Y-106500000D03*
X163022962Y-103123467D03*
D12*
X149500000Y-99500000D03*
M02*
