M48
;DRILL file {KiCad (5.0-dev-4115-gdd04bcb)} date Thursday, March 29, 2018 at 02:15:09 PM
;FORMAT={-:-/ absolute / inch / decimal}
FMAT,2
INCH,TZ
T1C0.0591
%
G90
G05
M72
T1
X5.3346Y-3.9173
X5.3534Y-3.7747
X5.3534Y-4.06
X5.4085Y-3.6417
X5.4085Y-4.1929
X5.4724Y-3.9173
X5.4961Y-3.5276
X5.4961Y-4.3071
X5.4974Y-3.7759
X5.4974Y-4.0587
X5.5692Y-3.6516
X5.5692Y-4.183
X5.6102Y-3.44
X5.6102Y-3.9173
X5.6102Y-4.3947
X5.6472Y-3.7795
X5.6472Y-4.0551
X5.6791Y-3.5593
X5.6791Y-4.2753
X5.7432Y-3.3849
X5.7432Y-4.4497
X5.748Y-3.6787
X5.748Y-3.9173
X5.748Y-4.156
X5.814Y-3.5102
X5.814Y-4.3244
X5.8169Y-3.798
X5.8169Y-4.0367
X5.8858Y-3.3661
X5.8858Y-3.6417
X5.8858Y-3.9173
X5.8858Y-4.1929
X5.8858Y-4.4685
X5.9547Y-3.798
X5.9547Y-4.0367
X5.9576Y-3.5102
X5.9576Y-4.3244
X6.0236Y-3.6787
X6.0236Y-3.9173
X6.0236Y-4.156
X6.0285Y-3.3849
X6.0285Y-4.4497
X6.0925Y-3.5593
X6.0925Y-4.2753
X6.1245Y-3.7795
X6.1245Y-4.0551
X6.1614Y-3.44
X6.1614Y-3.9173
X6.1614Y-4.3947
X6.2025Y-3.6516
X6.2025Y-4.183
X6.2743Y-3.7759
X6.2743Y-4.0587
X6.2756Y-3.5276
X6.2756Y-4.3071
X6.2992Y-3.9173
X6.3632Y-3.6417
X6.3632Y-4.1929
X6.4182Y-3.7747
X6.4182Y-4.06
X6.437Y-3.9173
T0
M30
