G04 #@! TF.GenerationSoftware,KiCad,Pcbnew,(5.0-dev-4115-gdd04bcb)*
G04 #@! TF.CreationDate,2018-03-26T16:24:54-07:00*
G04 #@! TF.ProjectId,PCB-Condenser-Microphone,5043422D436F6E64656E7365722D4D69,1*
G04 #@! TF.SameCoordinates,Original*
G04 #@! TF.FileFunction,Copper,L2,Bot,Signal*
G04 #@! TF.FilePolarity,Positive*
%FSLAX46Y46*%
G04 Gerber Fmt 4.6, Leading zero omitted, Abs format (unit mm)*
G04 Created by KiCad (PCBNEW (5.0-dev-4115-gdd04bcb)) date Monday, March 26, 2018 at 04:24:54 PM*
%MOMM*%
%LPD*%
G01*
G04 APERTURE LIST*
%ADD10O,1.700000X1.700000*%
%ADD11R,1.700000X1.700000*%
%ADD12C,4.200000*%
%ADD13C,0.800000*%
%ADD14C,0.254000*%
G04 APERTURE END LIST*
D10*
X124000000Y-73960000D03*
D11*
X124000000Y-76500000D03*
D12*
X130567486Y-51000000D03*
X121250000Y-51000000D03*
D13*
X126100000Y-57500000D03*
X123300000Y-56000000D03*
X125050000Y-63450000D03*
X121250000Y-69500000D03*
X124250000Y-69500000D03*
X131500000Y-64250000D03*
X123750000Y-53750000D03*
X128112347Y-53862347D03*
X126288899Y-63685795D03*
X126000000Y-78500000D03*
X129500000Y-86000000D03*
X120000000Y-80500000D03*
D14*
G36*
X127340486Y-50358110D02*
X127340486Y-51641890D01*
X127831767Y-52827949D01*
X128739537Y-53735719D01*
X129925596Y-54227000D01*
X131209376Y-54227000D01*
X132395435Y-53735719D01*
X133298001Y-52833153D01*
X133298000Y-89298000D01*
X118702000Y-89298000D01*
X118702000Y-84006206D01*
X121523000Y-84006206D01*
X121523000Y-84593794D01*
X121747860Y-85136653D01*
X122163347Y-85552140D01*
X122706206Y-85777000D01*
X123293794Y-85777000D01*
X123836653Y-85552140D01*
X124252140Y-85136653D01*
X124477000Y-84593794D01*
X124477000Y-84006206D01*
X129023000Y-84006206D01*
X129023000Y-84593794D01*
X129247860Y-85136653D01*
X129663347Y-85552140D01*
X130206206Y-85777000D01*
X130793794Y-85777000D01*
X131336653Y-85552140D01*
X131752140Y-85136653D01*
X131977000Y-84593794D01*
X131977000Y-84006206D01*
X131752140Y-83463347D01*
X131336653Y-83047860D01*
X130793794Y-82823000D01*
X130206206Y-82823000D01*
X129663347Y-83047860D01*
X129247860Y-83463347D01*
X129023000Y-84006206D01*
X124477000Y-84006206D01*
X124252140Y-83463347D01*
X123836653Y-83047860D01*
X123293794Y-82823000D01*
X122706206Y-82823000D01*
X122163347Y-83047860D01*
X121747860Y-83463347D01*
X121523000Y-84006206D01*
X118702000Y-84006206D01*
X118702000Y-77156478D01*
X119273000Y-77156478D01*
X119273000Y-77843522D01*
X119535920Y-78478267D01*
X120021733Y-78964080D01*
X120656478Y-79227000D01*
X121343522Y-79227000D01*
X121978267Y-78964080D01*
X122464080Y-78478267D01*
X122727000Y-77843522D01*
X122727000Y-77813712D01*
X122794833Y-77881545D01*
X123025282Y-77977000D01*
X123720250Y-77977000D01*
X123877000Y-77820250D01*
X123877000Y-76623000D01*
X124123000Y-76623000D01*
X124123000Y-77820250D01*
X124279750Y-77977000D01*
X124974718Y-77977000D01*
X125205167Y-77881545D01*
X125381545Y-77705167D01*
X125477000Y-77474718D01*
X125477000Y-77185771D01*
X130923000Y-77185771D01*
X130923000Y-77614229D01*
X131086963Y-78010072D01*
X131389928Y-78313037D01*
X131785771Y-78477000D01*
X132214229Y-78477000D01*
X132610072Y-78313037D01*
X132913037Y-78010072D01*
X133077000Y-77614229D01*
X133077000Y-77185771D01*
X132913037Y-76789928D01*
X132610072Y-76486963D01*
X132214229Y-76323000D01*
X131785771Y-76323000D01*
X131389928Y-76486963D01*
X131086963Y-76789928D01*
X130923000Y-77185771D01*
X125477000Y-77185771D01*
X125477000Y-76779750D01*
X125320250Y-76623000D01*
X124123000Y-76623000D01*
X123877000Y-76623000D01*
X122679750Y-76623000D01*
X122556909Y-76745841D01*
X122464080Y-76521733D01*
X121978267Y-76035920D01*
X121343522Y-75773000D01*
X120656478Y-75773000D01*
X120021733Y-76035920D01*
X119535920Y-76521733D01*
X119273000Y-77156478D01*
X118702000Y-77156478D01*
X118702000Y-72156478D01*
X119273000Y-72156478D01*
X119273000Y-72843522D01*
X119535920Y-73478267D01*
X120021733Y-73964080D01*
X120656478Y-74227000D01*
X121343522Y-74227000D01*
X121978267Y-73964080D01*
X121982347Y-73960000D01*
X122494064Y-73960000D01*
X122608697Y-74536297D01*
X122935142Y-75024858D01*
X122967921Y-75046760D01*
X122794833Y-75118455D01*
X122618455Y-75294833D01*
X122523000Y-75525282D01*
X122523000Y-76220250D01*
X122679750Y-76377000D01*
X123877000Y-76377000D01*
X123877000Y-76357000D01*
X124123000Y-76357000D01*
X124123000Y-76377000D01*
X125320250Y-76377000D01*
X125477000Y-76220250D01*
X125477000Y-75525282D01*
X125381545Y-75294833D01*
X125205167Y-75118455D01*
X125032079Y-75046760D01*
X125064858Y-75024858D01*
X125391303Y-74536297D01*
X125505936Y-73960000D01*
X125391303Y-73383703D01*
X125064858Y-72895142D01*
X124576297Y-72568697D01*
X124145471Y-72483000D01*
X123854529Y-72483000D01*
X123423703Y-72568697D01*
X122935142Y-72895142D01*
X122608697Y-73383703D01*
X122494064Y-73960000D01*
X121982347Y-73960000D01*
X122464080Y-73478267D01*
X122727000Y-72843522D01*
X122727000Y-72156478D01*
X122464080Y-71521733D01*
X121978267Y-71035920D01*
X121343522Y-70773000D01*
X120656478Y-70773000D01*
X120021733Y-71035920D01*
X119535920Y-71521733D01*
X119273000Y-72156478D01*
X118702000Y-72156478D01*
X118702000Y-70385771D01*
X130923000Y-70385771D01*
X130923000Y-70814229D01*
X131086963Y-71210072D01*
X131389928Y-71513037D01*
X131785771Y-71677000D01*
X132214229Y-71677000D01*
X132610072Y-71513037D01*
X132913037Y-71210072D01*
X133077000Y-70814229D01*
X133077000Y-70385771D01*
X132913037Y-69989928D01*
X132610072Y-69686963D01*
X132214229Y-69523000D01*
X131785771Y-69523000D01*
X131389928Y-69686963D01*
X131086963Y-69989928D01*
X130923000Y-70385771D01*
X118702000Y-70385771D01*
X118702000Y-53015668D01*
X119422051Y-53735719D01*
X120608110Y-54227000D01*
X121891890Y-54227000D01*
X123077949Y-53735719D01*
X123985719Y-52827949D01*
X124477000Y-51641890D01*
X124477000Y-50358110D01*
X124174164Y-49627000D01*
X127643321Y-49627000D01*
X127340486Y-50358110D01*
X127340486Y-50358110D01*
G37*
X127340486Y-50358110D02*
X127340486Y-51641890D01*
X127831767Y-52827949D01*
X128739537Y-53735719D01*
X129925596Y-54227000D01*
X131209376Y-54227000D01*
X132395435Y-53735719D01*
X133298001Y-52833153D01*
X133298000Y-89298000D01*
X118702000Y-89298000D01*
X118702000Y-84006206D01*
X121523000Y-84006206D01*
X121523000Y-84593794D01*
X121747860Y-85136653D01*
X122163347Y-85552140D01*
X122706206Y-85777000D01*
X123293794Y-85777000D01*
X123836653Y-85552140D01*
X124252140Y-85136653D01*
X124477000Y-84593794D01*
X124477000Y-84006206D01*
X129023000Y-84006206D01*
X129023000Y-84593794D01*
X129247860Y-85136653D01*
X129663347Y-85552140D01*
X130206206Y-85777000D01*
X130793794Y-85777000D01*
X131336653Y-85552140D01*
X131752140Y-85136653D01*
X131977000Y-84593794D01*
X131977000Y-84006206D01*
X131752140Y-83463347D01*
X131336653Y-83047860D01*
X130793794Y-82823000D01*
X130206206Y-82823000D01*
X129663347Y-83047860D01*
X129247860Y-83463347D01*
X129023000Y-84006206D01*
X124477000Y-84006206D01*
X124252140Y-83463347D01*
X123836653Y-83047860D01*
X123293794Y-82823000D01*
X122706206Y-82823000D01*
X122163347Y-83047860D01*
X121747860Y-83463347D01*
X121523000Y-84006206D01*
X118702000Y-84006206D01*
X118702000Y-77156478D01*
X119273000Y-77156478D01*
X119273000Y-77843522D01*
X119535920Y-78478267D01*
X120021733Y-78964080D01*
X120656478Y-79227000D01*
X121343522Y-79227000D01*
X121978267Y-78964080D01*
X122464080Y-78478267D01*
X122727000Y-77843522D01*
X122727000Y-77813712D01*
X122794833Y-77881545D01*
X123025282Y-77977000D01*
X123720250Y-77977000D01*
X123877000Y-77820250D01*
X123877000Y-76623000D01*
X124123000Y-76623000D01*
X124123000Y-77820250D01*
X124279750Y-77977000D01*
X124974718Y-77977000D01*
X125205167Y-77881545D01*
X125381545Y-77705167D01*
X125477000Y-77474718D01*
X125477000Y-77185771D01*
X130923000Y-77185771D01*
X130923000Y-77614229D01*
X131086963Y-78010072D01*
X131389928Y-78313037D01*
X131785771Y-78477000D01*
X132214229Y-78477000D01*
X132610072Y-78313037D01*
X132913037Y-78010072D01*
X133077000Y-77614229D01*
X133077000Y-77185771D01*
X132913037Y-76789928D01*
X132610072Y-76486963D01*
X132214229Y-76323000D01*
X131785771Y-76323000D01*
X131389928Y-76486963D01*
X131086963Y-76789928D01*
X130923000Y-77185771D01*
X125477000Y-77185771D01*
X125477000Y-76779750D01*
X125320250Y-76623000D01*
X124123000Y-76623000D01*
X123877000Y-76623000D01*
X122679750Y-76623000D01*
X122556909Y-76745841D01*
X122464080Y-76521733D01*
X121978267Y-76035920D01*
X121343522Y-75773000D01*
X120656478Y-75773000D01*
X120021733Y-76035920D01*
X119535920Y-76521733D01*
X119273000Y-77156478D01*
X118702000Y-77156478D01*
X118702000Y-72156478D01*
X119273000Y-72156478D01*
X119273000Y-72843522D01*
X119535920Y-73478267D01*
X120021733Y-73964080D01*
X120656478Y-74227000D01*
X121343522Y-74227000D01*
X121978267Y-73964080D01*
X121982347Y-73960000D01*
X122494064Y-73960000D01*
X122608697Y-74536297D01*
X122935142Y-75024858D01*
X122967921Y-75046760D01*
X122794833Y-75118455D01*
X122618455Y-75294833D01*
X122523000Y-75525282D01*
X122523000Y-76220250D01*
X122679750Y-76377000D01*
X123877000Y-76377000D01*
X123877000Y-76357000D01*
X124123000Y-76357000D01*
X124123000Y-76377000D01*
X125320250Y-76377000D01*
X125477000Y-76220250D01*
X125477000Y-75525282D01*
X125381545Y-75294833D01*
X125205167Y-75118455D01*
X125032079Y-75046760D01*
X125064858Y-75024858D01*
X125391303Y-74536297D01*
X125505936Y-73960000D01*
X125391303Y-73383703D01*
X125064858Y-72895142D01*
X124576297Y-72568697D01*
X124145471Y-72483000D01*
X123854529Y-72483000D01*
X123423703Y-72568697D01*
X122935142Y-72895142D01*
X122608697Y-73383703D01*
X122494064Y-73960000D01*
X121982347Y-73960000D01*
X122464080Y-73478267D01*
X122727000Y-72843522D01*
X122727000Y-72156478D01*
X122464080Y-71521733D01*
X121978267Y-71035920D01*
X121343522Y-70773000D01*
X120656478Y-70773000D01*
X120021733Y-71035920D01*
X119535920Y-71521733D01*
X119273000Y-72156478D01*
X118702000Y-72156478D01*
X118702000Y-70385771D01*
X130923000Y-70385771D01*
X130923000Y-70814229D01*
X131086963Y-71210072D01*
X131389928Y-71513037D01*
X131785771Y-71677000D01*
X132214229Y-71677000D01*
X132610072Y-71513037D01*
X132913037Y-71210072D01*
X133077000Y-70814229D01*
X133077000Y-70385771D01*
X132913037Y-69989928D01*
X132610072Y-69686963D01*
X132214229Y-69523000D01*
X131785771Y-69523000D01*
X131389928Y-69686963D01*
X131086963Y-69989928D01*
X130923000Y-70385771D01*
X118702000Y-70385771D01*
X118702000Y-53015668D01*
X119422051Y-53735719D01*
X120608110Y-54227000D01*
X121891890Y-54227000D01*
X123077949Y-53735719D01*
X123985719Y-52827949D01*
X124477000Y-51641890D01*
X124477000Y-50358110D01*
X124174164Y-49627000D01*
X127643321Y-49627000D01*
X127340486Y-50358110D01*
M02*
