G04 #@! TF.GenerationSoftware,KiCad,Pcbnew,(5.0-dev-4115-gdd04bcb)*
G04 #@! TF.CreationDate,2018-03-13T16:30:22-07:00*
G04 #@! TF.ProjectId,PCB-Condenser-Microphone,5043422D436F6E64656E7365722D4D69,1*
G04 #@! TF.SameCoordinates,Original*
G04 #@! TF.FileFunction,Copper,L2,Bot,Signal*
G04 #@! TF.FilePolarity,Positive*
%FSLAX46Y46*%
G04 Gerber Fmt 4.6, Leading zero omitted, Abs format (unit mm)*
G04 Created by KiCad (PCBNEW (5.0-dev-4115-gdd04bcb)) date Tuesday, March 13, 2018 at 04:30:22 PM*
%MOMM*%
%LPD*%
G01*
G04 APERTURE LIST*
%ADD10O,1.700000X1.700000*%
%ADD11R,1.700000X1.700000*%
%ADD12C,4.200000*%
%ADD13C,0.800000*%
%ADD14C,0.254000*%
G04 APERTURE END LIST*
D10*
X124000000Y-68960000D03*
D11*
X124000000Y-71500000D03*
D12*
X130567486Y-51000000D03*
X121250000Y-51000000D03*
D13*
X125050000Y-58450000D03*
X121250000Y-64500000D03*
X124250000Y-64500000D03*
X131500000Y-59250000D03*
X123750000Y-53750000D03*
X128112347Y-53862347D03*
X126288899Y-58685795D03*
X126000000Y-73500000D03*
X129500000Y-81000000D03*
X120000000Y-75500000D03*
D14*
G36*
X127340486Y-50358110D02*
X127340486Y-51641890D01*
X127831767Y-52827949D01*
X128739537Y-53735719D01*
X129925596Y-54227000D01*
X131209376Y-54227000D01*
X132395435Y-53735719D01*
X133298001Y-52833153D01*
X133298000Y-84298000D01*
X118702000Y-84298000D01*
X118702000Y-79006206D01*
X121523000Y-79006206D01*
X121523000Y-79593794D01*
X121747860Y-80136653D01*
X122163347Y-80552140D01*
X122706206Y-80777000D01*
X123293794Y-80777000D01*
X123836653Y-80552140D01*
X124252140Y-80136653D01*
X124477000Y-79593794D01*
X124477000Y-79006206D01*
X129023000Y-79006206D01*
X129023000Y-79593794D01*
X129247860Y-80136653D01*
X129663347Y-80552140D01*
X130206206Y-80777000D01*
X130793794Y-80777000D01*
X131336653Y-80552140D01*
X131752140Y-80136653D01*
X131977000Y-79593794D01*
X131977000Y-79006206D01*
X131752140Y-78463347D01*
X131336653Y-78047860D01*
X130793794Y-77823000D01*
X130206206Y-77823000D01*
X129663347Y-78047860D01*
X129247860Y-78463347D01*
X129023000Y-79006206D01*
X124477000Y-79006206D01*
X124252140Y-78463347D01*
X123836653Y-78047860D01*
X123293794Y-77823000D01*
X122706206Y-77823000D01*
X122163347Y-78047860D01*
X121747860Y-78463347D01*
X121523000Y-79006206D01*
X118702000Y-79006206D01*
X118702000Y-72156478D01*
X119273000Y-72156478D01*
X119273000Y-72843522D01*
X119535920Y-73478267D01*
X120021733Y-73964080D01*
X120656478Y-74227000D01*
X121343522Y-74227000D01*
X121978267Y-73964080D01*
X122464080Y-73478267D01*
X122727000Y-72843522D01*
X122727000Y-72813712D01*
X122794833Y-72881545D01*
X123025282Y-72977000D01*
X123720250Y-72977000D01*
X123877000Y-72820250D01*
X123877000Y-71623000D01*
X124123000Y-71623000D01*
X124123000Y-72820250D01*
X124279750Y-72977000D01*
X124974718Y-72977000D01*
X125205167Y-72881545D01*
X125381545Y-72705167D01*
X125477000Y-72474718D01*
X125477000Y-72185771D01*
X130923000Y-72185771D01*
X130923000Y-72614229D01*
X131086963Y-73010072D01*
X131389928Y-73313037D01*
X131785771Y-73477000D01*
X132214229Y-73477000D01*
X132610072Y-73313037D01*
X132913037Y-73010072D01*
X133077000Y-72614229D01*
X133077000Y-72185771D01*
X132913037Y-71789928D01*
X132610072Y-71486963D01*
X132214229Y-71323000D01*
X131785771Y-71323000D01*
X131389928Y-71486963D01*
X131086963Y-71789928D01*
X130923000Y-72185771D01*
X125477000Y-72185771D01*
X125477000Y-71779750D01*
X125320250Y-71623000D01*
X124123000Y-71623000D01*
X123877000Y-71623000D01*
X122679750Y-71623000D01*
X122556909Y-71745841D01*
X122464080Y-71521733D01*
X121978267Y-71035920D01*
X121343522Y-70773000D01*
X120656478Y-70773000D01*
X120021733Y-71035920D01*
X119535920Y-71521733D01*
X119273000Y-72156478D01*
X118702000Y-72156478D01*
X118702000Y-67156478D01*
X119273000Y-67156478D01*
X119273000Y-67843522D01*
X119535920Y-68478267D01*
X120021733Y-68964080D01*
X120656478Y-69227000D01*
X121343522Y-69227000D01*
X121978267Y-68964080D01*
X121982347Y-68960000D01*
X122494064Y-68960000D01*
X122608697Y-69536297D01*
X122935142Y-70024858D01*
X122967921Y-70046760D01*
X122794833Y-70118455D01*
X122618455Y-70294833D01*
X122523000Y-70525282D01*
X122523000Y-71220250D01*
X122679750Y-71377000D01*
X123877000Y-71377000D01*
X123877000Y-71357000D01*
X124123000Y-71357000D01*
X124123000Y-71377000D01*
X125320250Y-71377000D01*
X125477000Y-71220250D01*
X125477000Y-70525282D01*
X125381545Y-70294833D01*
X125205167Y-70118455D01*
X125032079Y-70046760D01*
X125064858Y-70024858D01*
X125391303Y-69536297D01*
X125505936Y-68960000D01*
X125391303Y-68383703D01*
X125064858Y-67895142D01*
X124576297Y-67568697D01*
X124145471Y-67483000D01*
X123854529Y-67483000D01*
X123423703Y-67568697D01*
X122935142Y-67895142D01*
X122608697Y-68383703D01*
X122494064Y-68960000D01*
X121982347Y-68960000D01*
X122464080Y-68478267D01*
X122727000Y-67843522D01*
X122727000Y-67156478D01*
X122464080Y-66521733D01*
X121978267Y-66035920D01*
X121343522Y-65773000D01*
X120656478Y-65773000D01*
X120021733Y-66035920D01*
X119535920Y-66521733D01*
X119273000Y-67156478D01*
X118702000Y-67156478D01*
X118702000Y-65385771D01*
X130923000Y-65385771D01*
X130923000Y-65814229D01*
X131086963Y-66210072D01*
X131389928Y-66513037D01*
X131785771Y-66677000D01*
X132214229Y-66677000D01*
X132610072Y-66513037D01*
X132913037Y-66210072D01*
X133077000Y-65814229D01*
X133077000Y-65385771D01*
X132913037Y-64989928D01*
X132610072Y-64686963D01*
X132214229Y-64523000D01*
X131785771Y-64523000D01*
X131389928Y-64686963D01*
X131086963Y-64989928D01*
X130923000Y-65385771D01*
X118702000Y-65385771D01*
X118702000Y-53015668D01*
X119422051Y-53735719D01*
X120608110Y-54227000D01*
X121891890Y-54227000D01*
X123077949Y-53735719D01*
X123985719Y-52827949D01*
X124477000Y-51641890D01*
X124477000Y-50358110D01*
X124174164Y-49627000D01*
X127643321Y-49627000D01*
X127340486Y-50358110D01*
X127340486Y-50358110D01*
G37*
X127340486Y-50358110D02*
X127340486Y-51641890D01*
X127831767Y-52827949D01*
X128739537Y-53735719D01*
X129925596Y-54227000D01*
X131209376Y-54227000D01*
X132395435Y-53735719D01*
X133298001Y-52833153D01*
X133298000Y-84298000D01*
X118702000Y-84298000D01*
X118702000Y-79006206D01*
X121523000Y-79006206D01*
X121523000Y-79593794D01*
X121747860Y-80136653D01*
X122163347Y-80552140D01*
X122706206Y-80777000D01*
X123293794Y-80777000D01*
X123836653Y-80552140D01*
X124252140Y-80136653D01*
X124477000Y-79593794D01*
X124477000Y-79006206D01*
X129023000Y-79006206D01*
X129023000Y-79593794D01*
X129247860Y-80136653D01*
X129663347Y-80552140D01*
X130206206Y-80777000D01*
X130793794Y-80777000D01*
X131336653Y-80552140D01*
X131752140Y-80136653D01*
X131977000Y-79593794D01*
X131977000Y-79006206D01*
X131752140Y-78463347D01*
X131336653Y-78047860D01*
X130793794Y-77823000D01*
X130206206Y-77823000D01*
X129663347Y-78047860D01*
X129247860Y-78463347D01*
X129023000Y-79006206D01*
X124477000Y-79006206D01*
X124252140Y-78463347D01*
X123836653Y-78047860D01*
X123293794Y-77823000D01*
X122706206Y-77823000D01*
X122163347Y-78047860D01*
X121747860Y-78463347D01*
X121523000Y-79006206D01*
X118702000Y-79006206D01*
X118702000Y-72156478D01*
X119273000Y-72156478D01*
X119273000Y-72843522D01*
X119535920Y-73478267D01*
X120021733Y-73964080D01*
X120656478Y-74227000D01*
X121343522Y-74227000D01*
X121978267Y-73964080D01*
X122464080Y-73478267D01*
X122727000Y-72843522D01*
X122727000Y-72813712D01*
X122794833Y-72881545D01*
X123025282Y-72977000D01*
X123720250Y-72977000D01*
X123877000Y-72820250D01*
X123877000Y-71623000D01*
X124123000Y-71623000D01*
X124123000Y-72820250D01*
X124279750Y-72977000D01*
X124974718Y-72977000D01*
X125205167Y-72881545D01*
X125381545Y-72705167D01*
X125477000Y-72474718D01*
X125477000Y-72185771D01*
X130923000Y-72185771D01*
X130923000Y-72614229D01*
X131086963Y-73010072D01*
X131389928Y-73313037D01*
X131785771Y-73477000D01*
X132214229Y-73477000D01*
X132610072Y-73313037D01*
X132913037Y-73010072D01*
X133077000Y-72614229D01*
X133077000Y-72185771D01*
X132913037Y-71789928D01*
X132610072Y-71486963D01*
X132214229Y-71323000D01*
X131785771Y-71323000D01*
X131389928Y-71486963D01*
X131086963Y-71789928D01*
X130923000Y-72185771D01*
X125477000Y-72185771D01*
X125477000Y-71779750D01*
X125320250Y-71623000D01*
X124123000Y-71623000D01*
X123877000Y-71623000D01*
X122679750Y-71623000D01*
X122556909Y-71745841D01*
X122464080Y-71521733D01*
X121978267Y-71035920D01*
X121343522Y-70773000D01*
X120656478Y-70773000D01*
X120021733Y-71035920D01*
X119535920Y-71521733D01*
X119273000Y-72156478D01*
X118702000Y-72156478D01*
X118702000Y-67156478D01*
X119273000Y-67156478D01*
X119273000Y-67843522D01*
X119535920Y-68478267D01*
X120021733Y-68964080D01*
X120656478Y-69227000D01*
X121343522Y-69227000D01*
X121978267Y-68964080D01*
X121982347Y-68960000D01*
X122494064Y-68960000D01*
X122608697Y-69536297D01*
X122935142Y-70024858D01*
X122967921Y-70046760D01*
X122794833Y-70118455D01*
X122618455Y-70294833D01*
X122523000Y-70525282D01*
X122523000Y-71220250D01*
X122679750Y-71377000D01*
X123877000Y-71377000D01*
X123877000Y-71357000D01*
X124123000Y-71357000D01*
X124123000Y-71377000D01*
X125320250Y-71377000D01*
X125477000Y-71220250D01*
X125477000Y-70525282D01*
X125381545Y-70294833D01*
X125205167Y-70118455D01*
X125032079Y-70046760D01*
X125064858Y-70024858D01*
X125391303Y-69536297D01*
X125505936Y-68960000D01*
X125391303Y-68383703D01*
X125064858Y-67895142D01*
X124576297Y-67568697D01*
X124145471Y-67483000D01*
X123854529Y-67483000D01*
X123423703Y-67568697D01*
X122935142Y-67895142D01*
X122608697Y-68383703D01*
X122494064Y-68960000D01*
X121982347Y-68960000D01*
X122464080Y-68478267D01*
X122727000Y-67843522D01*
X122727000Y-67156478D01*
X122464080Y-66521733D01*
X121978267Y-66035920D01*
X121343522Y-65773000D01*
X120656478Y-65773000D01*
X120021733Y-66035920D01*
X119535920Y-66521733D01*
X119273000Y-67156478D01*
X118702000Y-67156478D01*
X118702000Y-65385771D01*
X130923000Y-65385771D01*
X130923000Y-65814229D01*
X131086963Y-66210072D01*
X131389928Y-66513037D01*
X131785771Y-66677000D01*
X132214229Y-66677000D01*
X132610072Y-66513037D01*
X132913037Y-66210072D01*
X133077000Y-65814229D01*
X133077000Y-65385771D01*
X132913037Y-64989928D01*
X132610072Y-64686963D01*
X132214229Y-64523000D01*
X131785771Y-64523000D01*
X131389928Y-64686963D01*
X131086963Y-64989928D01*
X130923000Y-65385771D01*
X118702000Y-65385771D01*
X118702000Y-53015668D01*
X119422051Y-53735719D01*
X120608110Y-54227000D01*
X121891890Y-54227000D01*
X123077949Y-53735719D01*
X123985719Y-52827949D01*
X124477000Y-51641890D01*
X124477000Y-50358110D01*
X124174164Y-49627000D01*
X127643321Y-49627000D01*
X127340486Y-50358110D01*
M02*
