G04 #@! TF.GenerationSoftware,KiCad,Pcbnew,(5.0-dev-4115-gdd04bcb)*
G04 #@! TF.CreationDate,2018-04-04T01:45:51-07:00*
G04 #@! TF.ProjectId,PCB-Condenser-Microphone,5043422D436F6E64656E7365722D4D69,1*
G04 #@! TF.SameCoordinates,Original*
G04 #@! TF.FileFunction,Copper,L1,Top,Signal*
G04 #@! TF.FilePolarity,Positive*
%FSLAX46Y46*%
G04 Gerber Fmt 4.6, Leading zero omitted, Abs format (unit mm)*
G04 Created by KiCad (PCBNEW (5.0-dev-4115-gdd04bcb)) date Wednesday, April 04, 2018 at 01:45:51 AM*
%MOMM*%
%LPD*%
G01*
G04 APERTURE LIST*
%ADD10R,0.400000X0.600000*%
%ADD11R,0.750000X1.200000*%
%ADD12R,1.250000X1.500000*%
%ADD13R,1.500000X1.250000*%
%ADD14R,1.200000X0.900000*%
%ADD15R,2.200000X2.800000*%
%ADD16R,2.800000X2.800000*%
%ADD17R,0.600000X0.400000*%
%ADD18R,1.500000X1.600000*%
%ADD19R,1.200000X1.200000*%
%ADD20R,2.500000X1.250000*%
%ADD21R,0.600000X1.550000*%
%ADD22O,1.700000X1.700000*%
%ADD23R,1.700000X1.700000*%
%ADD24R,1.900000X0.800000*%
%ADD25C,4.200000*%
%ADD26R,3.000000X5.000000*%
%ADD27C,0.800000*%
%ADD28C,0.250000*%
G04 APERTURE END LIST*
D10*
X122450000Y-63500000D03*
X121550000Y-63500000D03*
X123350000Y-63500000D03*
X124250000Y-63500000D03*
D11*
X131500000Y-67450000D03*
X131500000Y-65550000D03*
D12*
X126500000Y-74500000D03*
X126500000Y-77000000D03*
D13*
X121600000Y-62000000D03*
X124100000Y-62000000D03*
X127750000Y-80000000D03*
X125250000Y-80000000D03*
D14*
X126200000Y-71000000D03*
X124000000Y-71000000D03*
D15*
X129600000Y-88000000D03*
D16*
X122200000Y-80600000D03*
D15*
X130400000Y-80600000D03*
D10*
X123000000Y-69500000D03*
X122100000Y-69500000D03*
X128650000Y-60700000D03*
X129550000Y-60700000D03*
X119700000Y-60000000D03*
X120600000Y-60000000D03*
X127050000Y-69500000D03*
X127950000Y-69500000D03*
X126000000Y-69500000D03*
X125100000Y-69500000D03*
D17*
X131400000Y-61950000D03*
X131400000Y-61050000D03*
D18*
X123800000Y-67000000D03*
D19*
X120500000Y-68000000D03*
X120500000Y-66000000D03*
D20*
X129250000Y-76500000D03*
X129250000Y-74000000D03*
X129250000Y-71500000D03*
D21*
X129905000Y-67700000D03*
X128635000Y-67700000D03*
X127365000Y-67700000D03*
X126095000Y-67700000D03*
X126095000Y-62300000D03*
X127365000Y-62300000D03*
X128635000Y-62300000D03*
X129905000Y-62300000D03*
D22*
X124000000Y-73960000D03*
D23*
X124000000Y-76500000D03*
D11*
X119750000Y-56500000D03*
X119750000Y-58400000D03*
D24*
X121500000Y-58500000D03*
X124500000Y-57550000D03*
X124500000Y-59450000D03*
D10*
X127700000Y-59500000D03*
X126800000Y-59500000D03*
X122500000Y-56000000D03*
X121600000Y-56000000D03*
D25*
X130545023Y-50992945D03*
X121227537Y-50992945D03*
D26*
X125900000Y-52500000D03*
D27*
X126100000Y-57500000D03*
X123300000Y-56000000D03*
X125050000Y-63450000D03*
X121250000Y-69500000D03*
X124250000Y-69500000D03*
X131500000Y-64250000D03*
X126288899Y-63685795D03*
X126000000Y-78500000D03*
X129500000Y-86000000D03*
X120000000Y-80500000D03*
D28*
X120600000Y-60000000D02*
X122014998Y-60000000D01*
X122014998Y-60000000D02*
X123289999Y-58724999D01*
X127700000Y-59400000D02*
X127700000Y-59500000D01*
X123289999Y-58724999D02*
X127024999Y-58724999D01*
X127024999Y-58724999D02*
X127700000Y-59400000D01*
X120600000Y-60550000D02*
X120600000Y-60000000D01*
X120524999Y-63224999D02*
X120800000Y-63500000D01*
X120800000Y-63500000D02*
X121100000Y-63500000D01*
X120600000Y-60550000D02*
X120524999Y-60625001D01*
X120524999Y-60625001D02*
X120524999Y-63224999D01*
X129250000Y-76500000D02*
X129073002Y-76500000D01*
X129073002Y-76500000D02*
X126325001Y-79248001D01*
X126325001Y-79248001D02*
X126325001Y-80885001D01*
X126325001Y-80885001D02*
X124885001Y-82325001D01*
X124885001Y-82325001D02*
X120539999Y-82325001D01*
X120539999Y-82325001D02*
X119124989Y-80909991D01*
X119124989Y-80909991D02*
X119124989Y-65475011D01*
X119124989Y-65475011D02*
X121100000Y-63500000D01*
X121100000Y-63500000D02*
X121550000Y-63500000D01*
X126500000Y-74500000D02*
X125625000Y-74500000D01*
X125625000Y-74500000D02*
X124989999Y-75135001D01*
X124989999Y-75135001D02*
X123435999Y-75135001D01*
X123435999Y-75135001D02*
X122824999Y-74524001D01*
X122824999Y-74524001D02*
X122824999Y-73395999D01*
X122824999Y-73395999D02*
X124445997Y-71775001D01*
X124445997Y-71775001D02*
X125274999Y-71775001D01*
X125274999Y-71775001D02*
X126050000Y-71000000D01*
X126050000Y-71000000D02*
X126200000Y-71000000D01*
X127950000Y-69500000D02*
X128580000Y-69500000D01*
X128580000Y-69500000D02*
X129905000Y-68175000D01*
X129905000Y-68175000D02*
X129905000Y-67700000D01*
X126200000Y-71000000D02*
X127050000Y-71000000D01*
X127050000Y-71000000D02*
X127950000Y-70100000D01*
X127950000Y-70100000D02*
X127950000Y-70050000D01*
X127950000Y-70050000D02*
X127950000Y-69500000D01*
X126500000Y-74500000D02*
X126500000Y-74625000D01*
X126500000Y-74625000D02*
X128375000Y-76500000D01*
X128375000Y-76500000D02*
X129250000Y-76500000D01*
X129905000Y-67700000D02*
X131250000Y-67700000D01*
X131250000Y-67700000D02*
X131500000Y-67450000D01*
X124500000Y-57550000D02*
X126050000Y-57550000D01*
X126050000Y-57550000D02*
X126100000Y-57500000D01*
X122500000Y-56000000D02*
X123300000Y-56000000D01*
X124250000Y-63500000D02*
X125000000Y-63500000D01*
X125000000Y-63500000D02*
X125050000Y-63450000D01*
X122100000Y-69500000D02*
X121250000Y-69500000D01*
X125100000Y-69500000D02*
X124250000Y-69500000D01*
X131500000Y-65550000D02*
X131500000Y-64250000D01*
X126095000Y-62300000D02*
X126095000Y-63491896D01*
X126095000Y-63491896D02*
X126288899Y-63685795D01*
X126500000Y-77000000D02*
X126500000Y-78000000D01*
X126500000Y-78000000D02*
X126000000Y-78500000D01*
X129600000Y-88000000D02*
X129600000Y-86100000D01*
X129600000Y-86100000D02*
X129500000Y-86000000D01*
X122200000Y-80600000D02*
X120100000Y-80600000D01*
X120100000Y-80600000D02*
X120000000Y-80500000D01*
X121600000Y-62000000D02*
X121600000Y-61125000D01*
X121600000Y-61125000D02*
X123275000Y-59450000D01*
X123275000Y-59450000D02*
X123300000Y-59450000D01*
X123300000Y-59450000D02*
X124500000Y-59450000D01*
X124500000Y-59450000D02*
X126750000Y-59450000D01*
X126750000Y-59450000D02*
X126800000Y-59500000D01*
X119750000Y-56500000D02*
X119750000Y-56275000D01*
X119750000Y-56275000D02*
X121325000Y-54700000D01*
X121325000Y-54700000D02*
X124700000Y-54700000D01*
X124700000Y-54700000D02*
X125900000Y-53500000D01*
X125900000Y-53500000D02*
X125900000Y-52500000D01*
X119700000Y-60000000D02*
X119250000Y-60000000D01*
X119250000Y-60000000D02*
X119049999Y-59799999D01*
X119049999Y-59799999D02*
X119049999Y-57425001D01*
X119049999Y-57425001D02*
X119750000Y-56725000D01*
X119750000Y-56725000D02*
X119750000Y-56500000D01*
X124100000Y-62000000D02*
X124225000Y-62000000D01*
X124225000Y-62000000D02*
X125274990Y-60950010D01*
X125274990Y-60950010D02*
X127949990Y-60950010D01*
X127949990Y-60950010D02*
X128200000Y-60700000D01*
X128200000Y-60700000D02*
X128650000Y-60700000D01*
X127750000Y-80000000D02*
X129800000Y-80000000D01*
X129800000Y-80000000D02*
X130400000Y-80600000D01*
X120500000Y-68000000D02*
X120500000Y-70890998D01*
X124250000Y-79125000D02*
X125125000Y-80000000D01*
X120500000Y-70890998D02*
X119574999Y-71815999D01*
X122425001Y-76815999D02*
X122425001Y-77175001D01*
X119574999Y-71815999D02*
X119574999Y-74324999D01*
X119574999Y-74324999D02*
X121324999Y-76074999D01*
X121324999Y-76074999D02*
X121684001Y-76074999D01*
X124250000Y-79000000D02*
X124250000Y-79125000D01*
X125125000Y-80000000D02*
X125250000Y-80000000D01*
X121684001Y-76074999D02*
X122425001Y-76815999D01*
X122425001Y-77175001D02*
X124250000Y-79000000D01*
X128635000Y-67700000D02*
X128635000Y-67225000D01*
X128635000Y-67225000D02*
X127284999Y-65874999D01*
X127284999Y-65874999D02*
X122625001Y-65874999D01*
X122625001Y-65874999D02*
X120500000Y-68000000D01*
X123000000Y-69500000D02*
X123000000Y-70000000D01*
X123000000Y-70000000D02*
X124000000Y-71000000D01*
X124000000Y-73960000D02*
X124960000Y-73000000D01*
X124960000Y-73000000D02*
X127625000Y-73000000D01*
X127625000Y-73000000D02*
X128625000Y-74000000D01*
X128625000Y-74000000D02*
X129250000Y-74000000D01*
X129550000Y-60700000D02*
X131050000Y-60700000D01*
X131050000Y-60700000D02*
X131400000Y-61050000D01*
X128635000Y-62300000D02*
X128635000Y-61715000D01*
X129550000Y-60800000D02*
X129550000Y-60700000D01*
X128635000Y-61715000D02*
X129550000Y-60800000D01*
X121500000Y-58500000D02*
X121500000Y-56100000D01*
X121500000Y-56100000D02*
X121600000Y-56000000D01*
X119750000Y-58400000D02*
X121400000Y-58400000D01*
X121400000Y-58400000D02*
X121500000Y-58500000D01*
X123350000Y-63500000D02*
X123350000Y-64050000D01*
X123350000Y-64050000D02*
X123710796Y-64410796D01*
X123710796Y-64410796D02*
X126636900Y-64410796D01*
X126636900Y-64410796D02*
X127365000Y-63682696D01*
X127365000Y-63682696D02*
X127365000Y-63325000D01*
X127365000Y-63325000D02*
X127365000Y-62300000D01*
X122450000Y-63500000D02*
X123350000Y-63500000D01*
X126000000Y-69500000D02*
X126000000Y-67795000D01*
X126000000Y-67795000D02*
X126095000Y-67700000D01*
X126000000Y-69500000D02*
X127050000Y-69500000D01*
X129424989Y-65424989D02*
X129905000Y-64944978D01*
X129905000Y-64944978D02*
X129905000Y-62300000D01*
X120500000Y-66000000D02*
X121863590Y-66000000D01*
X121863590Y-66000000D02*
X122438601Y-65424989D01*
X122438601Y-65424989D02*
X129424989Y-65424989D01*
X129905000Y-62300000D02*
X131050000Y-62300000D01*
X131050000Y-62300000D02*
X131400000Y-61950000D01*
X123800000Y-67000000D02*
X124800000Y-67000000D01*
X124800000Y-67000000D02*
X125200001Y-66599999D01*
X125200001Y-66599999D02*
X126739999Y-66599999D01*
X126739999Y-66599999D02*
X127365000Y-67225000D01*
X127365000Y-67225000D02*
X127365000Y-67700000D01*
M02*
