G04 #@! TF.GenerationSoftware,KiCad,Pcbnew,(5.0-dev-4115-gdd04bcb)*
G04 #@! TF.CreationDate,2018-03-14T15:01:09-07:00*
G04 #@! TF.ProjectId,PCB-Condenser-Microphone,5043422D436F6E64656E7365722D4D69,1*
G04 #@! TF.SameCoordinates,Original*
G04 #@! TF.FileFunction,Paste,Top*
G04 #@! TF.FilePolarity,Positive*
%FSLAX46Y46*%
G04 Gerber Fmt 4.6, Leading zero omitted, Abs format (unit mm)*
G04 Created by KiCad (PCBNEW (5.0-dev-4115-gdd04bcb)) date Wednesday, March 14, 2018 at 03:01:09 PM*
%MOMM*%
%LPD*%
G01*
G04 APERTURE LIST*
%ADD10R,0.400000X0.600000*%
%ADD11R,0.750000X1.200000*%
%ADD12R,1.250000X1.500000*%
%ADD13R,1.500000X1.250000*%
%ADD14R,1.200000X0.900000*%
%ADD15R,2.200000X2.800000*%
%ADD16R,2.800000X2.800000*%
%ADD17R,0.600000X0.400000*%
%ADD18R,1.500000X1.600000*%
%ADD19R,1.200000X1.200000*%
%ADD20R,2.500000X1.250000*%
%ADD21R,0.600000X1.550000*%
%ADD22R,3.000000X5.000000*%
G04 APERTURE END LIST*
D10*
X122450000Y-58500000D03*
X121550000Y-58500000D03*
X123350000Y-58500000D03*
X124250000Y-58500000D03*
D11*
X131500000Y-62450000D03*
X131500000Y-60550000D03*
D12*
X126500000Y-69500000D03*
X126500000Y-72000000D03*
D13*
X121600000Y-57000000D03*
X124100000Y-57000000D03*
X127750000Y-75000000D03*
X125250000Y-75000000D03*
D14*
X126200000Y-66000000D03*
X124000000Y-66000000D03*
D15*
X129600000Y-83000000D03*
D16*
X122200000Y-75600000D03*
D15*
X130400000Y-75600000D03*
D10*
X123000000Y-64500000D03*
X122100000Y-64500000D03*
X128650000Y-55700000D03*
X129550000Y-55700000D03*
X121500000Y-55000000D03*
X120600000Y-55000000D03*
X127050000Y-64500000D03*
X127950000Y-64500000D03*
X126000000Y-64500000D03*
X125100000Y-64500000D03*
D17*
X131400000Y-56950000D03*
X131400000Y-56050000D03*
D18*
X123800000Y-62000000D03*
D19*
X120500000Y-63000000D03*
X120500000Y-61000000D03*
D20*
X129250000Y-71500000D03*
X129250000Y-69000000D03*
X129250000Y-66500000D03*
D21*
X129905000Y-62700000D03*
X128635000Y-62700000D03*
X127365000Y-62700000D03*
X126095000Y-62700000D03*
X126095000Y-57300000D03*
X127365000Y-57300000D03*
X128635000Y-57300000D03*
X129905000Y-57300000D03*
D22*
X125922463Y-52507055D03*
M02*
