G04 #@! TF.GenerationSoftware,KiCad,Pcbnew,(5.0-dev-4115-gdd04bcb)*
G04 #@! TF.CreationDate,2018-03-14T15:01:09-07:00*
G04 #@! TF.ProjectId,PCB-Condenser-Microphone,5043422D436F6E64656E7365722D4D69,1*
G04 #@! TF.SameCoordinates,Original*
G04 #@! TF.FileFunction,Legend,Bot*
G04 #@! TF.FilePolarity,Positive*
%FSLAX46Y46*%
G04 Gerber Fmt 4.6, Leading zero omitted, Abs format (unit mm)*
G04 Created by KiCad (PCBNEW (5.0-dev-4115-gdd04bcb)) date Wednesday, March 14, 2018 at 03:01:09 PM*
%MOMM*%
%LPD*%
G01*
G04 APERTURE LIST*
%ADD10C,0.150000*%
%ADD11C,0.010000*%
G04 APERTURE END LIST*
D10*
X128527619Y-82470476D02*
X129527619Y-82470476D01*
X129527619Y-82089523D01*
X129480000Y-81994285D01*
X129432380Y-81946666D01*
X129337142Y-81899047D01*
X129194285Y-81899047D01*
X129099047Y-81946666D01*
X129051428Y-81994285D01*
X129003809Y-82089523D01*
X129003809Y-82470476D01*
X128622857Y-80899047D02*
X128575238Y-80946666D01*
X128527619Y-81089523D01*
X128527619Y-81184761D01*
X128575238Y-81327619D01*
X128670476Y-81422857D01*
X128765714Y-81470476D01*
X128956190Y-81518095D01*
X129099047Y-81518095D01*
X129289523Y-81470476D01*
X129384761Y-81422857D01*
X129480000Y-81327619D01*
X129527619Y-81184761D01*
X129527619Y-81089523D01*
X129480000Y-80946666D01*
X129432380Y-80899047D01*
X129051428Y-80137142D02*
X129003809Y-79994285D01*
X128956190Y-79946666D01*
X128860952Y-79899047D01*
X128718095Y-79899047D01*
X128622857Y-79946666D01*
X128575238Y-79994285D01*
X128527619Y-80089523D01*
X128527619Y-80470476D01*
X129527619Y-80470476D01*
X129527619Y-80137142D01*
X129480000Y-80041904D01*
X129432380Y-79994285D01*
X129337142Y-79946666D01*
X129241904Y-79946666D01*
X129146666Y-79994285D01*
X129099047Y-80041904D01*
X129051428Y-80137142D01*
X129051428Y-80470476D01*
X128622857Y-78137142D02*
X128575238Y-78184761D01*
X128527619Y-78327619D01*
X128527619Y-78422857D01*
X128575238Y-78565714D01*
X128670476Y-78660952D01*
X128765714Y-78708571D01*
X128956190Y-78756190D01*
X129099047Y-78756190D01*
X129289523Y-78708571D01*
X129384761Y-78660952D01*
X129480000Y-78565714D01*
X129527619Y-78422857D01*
X129527619Y-78327619D01*
X129480000Y-78184761D01*
X129432380Y-78137142D01*
X128527619Y-77565714D02*
X128575238Y-77660952D01*
X128622857Y-77708571D01*
X128718095Y-77756190D01*
X129003809Y-77756190D01*
X129099047Y-77708571D01*
X129146666Y-77660952D01*
X129194285Y-77565714D01*
X129194285Y-77422857D01*
X129146666Y-77327619D01*
X129099047Y-77280000D01*
X129003809Y-77232380D01*
X128718095Y-77232380D01*
X128622857Y-77280000D01*
X128575238Y-77327619D01*
X128527619Y-77422857D01*
X128527619Y-77565714D01*
X129194285Y-76803809D02*
X128527619Y-76803809D01*
X129099047Y-76803809D02*
X129146666Y-76756190D01*
X129194285Y-76660952D01*
X129194285Y-76518095D01*
X129146666Y-76422857D01*
X129051428Y-76375238D01*
X128527619Y-76375238D01*
X128527619Y-75470476D02*
X129527619Y-75470476D01*
X128575238Y-75470476D02*
X128527619Y-75565714D01*
X128527619Y-75756190D01*
X128575238Y-75851428D01*
X128622857Y-75899047D01*
X128718095Y-75946666D01*
X129003809Y-75946666D01*
X129099047Y-75899047D01*
X129146666Y-75851428D01*
X129194285Y-75756190D01*
X129194285Y-75565714D01*
X129146666Y-75470476D01*
X128575238Y-74613333D02*
X128527619Y-74708571D01*
X128527619Y-74899047D01*
X128575238Y-74994285D01*
X128670476Y-75041904D01*
X129051428Y-75041904D01*
X129146666Y-74994285D01*
X129194285Y-74899047D01*
X129194285Y-74708571D01*
X129146666Y-74613333D01*
X129051428Y-74565714D01*
X128956190Y-74565714D01*
X128860952Y-75041904D01*
X129194285Y-74137142D02*
X128527619Y-74137142D01*
X129099047Y-74137142D02*
X129146666Y-74089523D01*
X129194285Y-73994285D01*
X129194285Y-73851428D01*
X129146666Y-73756190D01*
X129051428Y-73708571D01*
X128527619Y-73708571D01*
X128575238Y-73280000D02*
X128527619Y-73184761D01*
X128527619Y-72994285D01*
X128575238Y-72899047D01*
X128670476Y-72851428D01*
X128718095Y-72851428D01*
X128813333Y-72899047D01*
X128860952Y-72994285D01*
X128860952Y-73137142D01*
X128908571Y-73232380D01*
X129003809Y-73280000D01*
X129051428Y-73280000D01*
X129146666Y-73232380D01*
X129194285Y-73137142D01*
X129194285Y-72994285D01*
X129146666Y-72899047D01*
X128575238Y-72041904D02*
X128527619Y-72137142D01*
X128527619Y-72327619D01*
X128575238Y-72422857D01*
X128670476Y-72470476D01*
X129051428Y-72470476D01*
X129146666Y-72422857D01*
X129194285Y-72327619D01*
X129194285Y-72137142D01*
X129146666Y-72041904D01*
X129051428Y-71994285D01*
X128956190Y-71994285D01*
X128860952Y-72470476D01*
X128527619Y-71565714D02*
X129194285Y-71565714D01*
X129003809Y-71565714D02*
X129099047Y-71518095D01*
X129146666Y-71470476D01*
X129194285Y-71375238D01*
X129194285Y-71280000D01*
X128527619Y-70184761D02*
X129527619Y-70184761D01*
X128813333Y-69851428D01*
X129527619Y-69518095D01*
X128527619Y-69518095D01*
X128527619Y-69041904D02*
X129194285Y-69041904D01*
X129527619Y-69041904D02*
X129480000Y-69089523D01*
X129432380Y-69041904D01*
X129480000Y-68994285D01*
X129527619Y-69041904D01*
X129432380Y-69041904D01*
X128575238Y-68137142D02*
X128527619Y-68232380D01*
X128527619Y-68422857D01*
X128575238Y-68518095D01*
X128622857Y-68565714D01*
X128718095Y-68613333D01*
X129003809Y-68613333D01*
X129099047Y-68565714D01*
X129146666Y-68518095D01*
X129194285Y-68422857D01*
X129194285Y-68232380D01*
X129146666Y-68137142D01*
X128527619Y-67708571D02*
X129194285Y-67708571D01*
X129003809Y-67708571D02*
X129099047Y-67660952D01*
X129146666Y-67613333D01*
X129194285Y-67518095D01*
X129194285Y-67422857D01*
X128527619Y-66946666D02*
X128575238Y-67041904D01*
X128622857Y-67089523D01*
X128718095Y-67137142D01*
X129003809Y-67137142D01*
X129099047Y-67089523D01*
X129146666Y-67041904D01*
X129194285Y-66946666D01*
X129194285Y-66803809D01*
X129146666Y-66708571D01*
X129099047Y-66660952D01*
X129003809Y-66613333D01*
X128718095Y-66613333D01*
X128622857Y-66660952D01*
X128575238Y-66708571D01*
X128527619Y-66803809D01*
X128527619Y-66946666D01*
X129194285Y-66184761D02*
X128194285Y-66184761D01*
X129146666Y-66184761D02*
X129194285Y-66089523D01*
X129194285Y-65899047D01*
X129146666Y-65803809D01*
X129099047Y-65756190D01*
X129003809Y-65708571D01*
X128718095Y-65708571D01*
X128622857Y-65756190D01*
X128575238Y-65803809D01*
X128527619Y-65899047D01*
X128527619Y-66089523D01*
X128575238Y-66184761D01*
X128527619Y-65280000D02*
X129527619Y-65280000D01*
X128527619Y-64851428D02*
X129051428Y-64851428D01*
X129146666Y-64899047D01*
X129194285Y-64994285D01*
X129194285Y-65137142D01*
X129146666Y-65232380D01*
X129099047Y-65280000D01*
X128527619Y-64232380D02*
X128575238Y-64327619D01*
X128622857Y-64375238D01*
X128718095Y-64422857D01*
X129003809Y-64422857D01*
X129099047Y-64375238D01*
X129146666Y-64327619D01*
X129194285Y-64232380D01*
X129194285Y-64089523D01*
X129146666Y-63994285D01*
X129099047Y-63946666D01*
X129003809Y-63899047D01*
X128718095Y-63899047D01*
X128622857Y-63946666D01*
X128575238Y-63994285D01*
X128527619Y-64089523D01*
X128527619Y-64232380D01*
X129194285Y-63470476D02*
X128527619Y-63470476D01*
X129099047Y-63470476D02*
X129146666Y-63422857D01*
X129194285Y-63327619D01*
X129194285Y-63184761D01*
X129146666Y-63089523D01*
X129051428Y-63041904D01*
X128527619Y-63041904D01*
X128575238Y-62184761D02*
X128527619Y-62280000D01*
X128527619Y-62470476D01*
X128575238Y-62565714D01*
X128670476Y-62613333D01*
X129051428Y-62613333D01*
X129146666Y-62565714D01*
X129194285Y-62470476D01*
X129194285Y-62280000D01*
X129146666Y-62184761D01*
X129051428Y-62137142D01*
X128956190Y-62137142D01*
X128860952Y-62613333D01*
X128908571Y-60946666D02*
X128908571Y-60184761D01*
X128527619Y-58375238D02*
X129003809Y-58708571D01*
X128527619Y-58946666D02*
X129527619Y-58946666D01*
X129527619Y-58565714D01*
X129480000Y-58470476D01*
X129432380Y-58422857D01*
X129337142Y-58375238D01*
X129194285Y-58375238D01*
X129099047Y-58422857D01*
X129051428Y-58470476D01*
X129003809Y-58565714D01*
X129003809Y-58946666D01*
X128575238Y-57565714D02*
X128527619Y-57660952D01*
X128527619Y-57851428D01*
X128575238Y-57946666D01*
X128670476Y-57994285D01*
X129051428Y-57994285D01*
X129146666Y-57946666D01*
X129194285Y-57851428D01*
X129194285Y-57660952D01*
X129146666Y-57565714D01*
X129051428Y-57518095D01*
X128956190Y-57518095D01*
X128860952Y-57994285D01*
X129194285Y-57184761D02*
X128527619Y-56946666D01*
X129194285Y-56708571D01*
X128527619Y-55041904D02*
X128527619Y-55613333D01*
X128527619Y-55327619D02*
X129527619Y-55327619D01*
X129384761Y-55422857D01*
X129289523Y-55518095D01*
X129241904Y-55613333D01*
X126496666Y-78351428D02*
X126544285Y-78399047D01*
X126687142Y-78494285D01*
X126782380Y-78541904D01*
X126925238Y-78589523D01*
X127163333Y-78637142D01*
X127353809Y-78637142D01*
X127591904Y-78589523D01*
X127734761Y-78541904D01*
X127830000Y-78494285D01*
X127972857Y-78399047D01*
X128020476Y-78351428D01*
X126925238Y-77541904D02*
X126877619Y-77637142D01*
X126877619Y-77827619D01*
X126925238Y-77922857D01*
X126972857Y-77970476D01*
X127068095Y-78018095D01*
X127353809Y-78018095D01*
X127449047Y-77970476D01*
X127496666Y-77922857D01*
X127544285Y-77827619D01*
X127544285Y-77637142D01*
X127496666Y-77541904D01*
X126496666Y-77208571D02*
X126544285Y-77160952D01*
X126687142Y-77065714D01*
X126782380Y-77018095D01*
X126925238Y-76970476D01*
X127163333Y-76922857D01*
X127353809Y-76922857D01*
X127591904Y-76970476D01*
X127734761Y-77018095D01*
X127830000Y-77065714D01*
X127972857Y-77160952D01*
X128020476Y-77208571D01*
X127782380Y-75732380D02*
X127830000Y-75684761D01*
X127877619Y-75589523D01*
X127877619Y-75351428D01*
X127830000Y-75256190D01*
X127782380Y-75208571D01*
X127687142Y-75160952D01*
X127591904Y-75160952D01*
X127449047Y-75208571D01*
X126877619Y-75780000D01*
X126877619Y-75160952D01*
X127877619Y-74541904D02*
X127877619Y-74446666D01*
X127830000Y-74351428D01*
X127782380Y-74303809D01*
X127687142Y-74256190D01*
X127496666Y-74208571D01*
X127258571Y-74208571D01*
X127068095Y-74256190D01*
X126972857Y-74303809D01*
X126925238Y-74351428D01*
X126877619Y-74446666D01*
X126877619Y-74541904D01*
X126925238Y-74637142D01*
X126972857Y-74684761D01*
X127068095Y-74732380D01*
X127258571Y-74780000D01*
X127496666Y-74780000D01*
X127687142Y-74732380D01*
X127782380Y-74684761D01*
X127830000Y-74637142D01*
X127877619Y-74541904D01*
X126877619Y-73256190D02*
X126877619Y-73827619D01*
X126877619Y-73541904D02*
X127877619Y-73541904D01*
X127734761Y-73637142D01*
X127639523Y-73732380D01*
X127591904Y-73827619D01*
X127449047Y-72684761D02*
X127496666Y-72780000D01*
X127544285Y-72827619D01*
X127639523Y-72875238D01*
X127687142Y-72875238D01*
X127782380Y-72827619D01*
X127830000Y-72780000D01*
X127877619Y-72684761D01*
X127877619Y-72494285D01*
X127830000Y-72399047D01*
X127782380Y-72351428D01*
X127687142Y-72303809D01*
X127639523Y-72303809D01*
X127544285Y-72351428D01*
X127496666Y-72399047D01*
X127449047Y-72494285D01*
X127449047Y-72684761D01*
X127401428Y-72780000D01*
X127353809Y-72827619D01*
X127258571Y-72875238D01*
X127068095Y-72875238D01*
X126972857Y-72827619D01*
X126925238Y-72780000D01*
X126877619Y-72684761D01*
X126877619Y-72494285D01*
X126925238Y-72399047D01*
X126972857Y-72351428D01*
X127068095Y-72303809D01*
X127258571Y-72303809D01*
X127353809Y-72351428D01*
X127401428Y-72399047D01*
X127449047Y-72494285D01*
X126972857Y-69018095D02*
X126925238Y-69065714D01*
X126877619Y-69208571D01*
X126877619Y-69303809D01*
X126925238Y-69446666D01*
X127020476Y-69541904D01*
X127115714Y-69589523D01*
X127306190Y-69637142D01*
X127449047Y-69637142D01*
X127639523Y-69589523D01*
X127734761Y-69541904D01*
X127830000Y-69446666D01*
X127877619Y-69303809D01*
X127877619Y-69208571D01*
X127830000Y-69065714D01*
X127782380Y-69018095D01*
X126877619Y-68446666D02*
X126925238Y-68541904D01*
X126972857Y-68589523D01*
X127068095Y-68637142D01*
X127353809Y-68637142D01*
X127449047Y-68589523D01*
X127496666Y-68541904D01*
X127544285Y-68446666D01*
X127544285Y-68303809D01*
X127496666Y-68208571D01*
X127449047Y-68160952D01*
X127353809Y-68113333D01*
X127068095Y-68113333D01*
X126972857Y-68160952D01*
X126925238Y-68208571D01*
X126877619Y-68303809D01*
X126877619Y-68446666D01*
X126877619Y-67684761D02*
X127544285Y-67684761D01*
X127353809Y-67684761D02*
X127449047Y-67637142D01*
X127496666Y-67589523D01*
X127544285Y-67494285D01*
X127544285Y-67399047D01*
X127544285Y-67160952D02*
X126877619Y-66970476D01*
X127353809Y-66780000D01*
X126877619Y-66589523D01*
X127544285Y-66399047D01*
X126877619Y-66018095D02*
X127544285Y-66018095D01*
X127877619Y-66018095D02*
X127830000Y-66065714D01*
X127782380Y-66018095D01*
X127830000Y-65970476D01*
X127877619Y-66018095D01*
X127782380Y-66018095D01*
X127544285Y-65541904D02*
X126877619Y-65541904D01*
X127449047Y-65541904D02*
X127496666Y-65494285D01*
X127544285Y-65399047D01*
X127544285Y-65256190D01*
X127496666Y-65160952D01*
X127401428Y-65113333D01*
X126877619Y-65113333D01*
X126877619Y-63875238D02*
X127877619Y-63875238D01*
X127401428Y-63875238D02*
X127401428Y-63303809D01*
X126877619Y-63303809D02*
X127877619Y-63303809D01*
X126877619Y-62399047D02*
X127401428Y-62399047D01*
X127496666Y-62446666D01*
X127544285Y-62541904D01*
X127544285Y-62732380D01*
X127496666Y-62827619D01*
X126925238Y-62399047D02*
X126877619Y-62494285D01*
X126877619Y-62732380D01*
X126925238Y-62827619D01*
X127020476Y-62875238D01*
X127115714Y-62875238D01*
X127210952Y-62827619D01*
X127258571Y-62732380D01*
X127258571Y-62494285D01*
X127306190Y-62399047D01*
X127544285Y-61922857D02*
X126877619Y-61922857D01*
X127449047Y-61922857D02*
X127496666Y-61875238D01*
X127544285Y-61780000D01*
X127544285Y-61637142D01*
X127496666Y-61541904D01*
X127401428Y-61494285D01*
X126877619Y-61494285D01*
X126925238Y-61065714D02*
X126877619Y-60970476D01*
X126877619Y-60780000D01*
X126925238Y-60684761D01*
X127020476Y-60637142D01*
X127068095Y-60637142D01*
X127163333Y-60684761D01*
X127210952Y-60780000D01*
X127210952Y-60922857D01*
X127258571Y-61018095D01*
X127353809Y-61065714D01*
X127401428Y-61065714D01*
X127496666Y-61018095D01*
X127544285Y-60922857D01*
X127544285Y-60780000D01*
X127496666Y-60684761D01*
X126925238Y-59827619D02*
X126877619Y-59922857D01*
X126877619Y-60113333D01*
X126925238Y-60208571D01*
X127020476Y-60256190D01*
X127401428Y-60256190D01*
X127496666Y-60208571D01*
X127544285Y-60113333D01*
X127544285Y-59922857D01*
X127496666Y-59827619D01*
X127401428Y-59780000D01*
X127306190Y-59780000D01*
X127210952Y-60256190D01*
X127544285Y-59351428D02*
X126877619Y-59351428D01*
X127449047Y-59351428D02*
X127496666Y-59303809D01*
X127544285Y-59208571D01*
X127544285Y-59065714D01*
X127496666Y-58970476D01*
X127401428Y-58922857D01*
X126877619Y-58922857D01*
X125275238Y-72756190D02*
X125227619Y-72851428D01*
X125227619Y-73041904D01*
X125275238Y-73137142D01*
X125322857Y-73184761D01*
X125418095Y-73232380D01*
X125703809Y-73232380D01*
X125799047Y-73184761D01*
X125846666Y-73137142D01*
X125894285Y-73041904D01*
X125894285Y-72851428D01*
X125846666Y-72756190D01*
X125227619Y-72184761D02*
X125275238Y-72280000D01*
X125322857Y-72327619D01*
X125418095Y-72375238D01*
X125703809Y-72375238D01*
X125799047Y-72327619D01*
X125846666Y-72280000D01*
X125894285Y-72184761D01*
X125894285Y-72041904D01*
X125846666Y-71946666D01*
X125799047Y-71899047D01*
X125703809Y-71851428D01*
X125418095Y-71851428D01*
X125322857Y-71899047D01*
X125275238Y-71946666D01*
X125227619Y-72041904D01*
X125227619Y-72184761D01*
X125227619Y-71422857D02*
X125894285Y-71422857D01*
X125703809Y-71422857D02*
X125799047Y-71375238D01*
X125846666Y-71327619D01*
X125894285Y-71232380D01*
X125894285Y-71137142D01*
X125894285Y-70899047D02*
X125227619Y-70708571D01*
X125703809Y-70518095D01*
X125227619Y-70327619D01*
X125894285Y-70137142D01*
X125227619Y-69756190D02*
X125894285Y-69756190D01*
X126227619Y-69756190D02*
X126180000Y-69803809D01*
X126132380Y-69756190D01*
X126180000Y-69708571D01*
X126227619Y-69756190D01*
X126132380Y-69756190D01*
X125894285Y-69280000D02*
X125227619Y-69280000D01*
X125799047Y-69280000D02*
X125846666Y-69232380D01*
X125894285Y-69137142D01*
X125894285Y-68994285D01*
X125846666Y-68899047D01*
X125751428Y-68851428D01*
X125227619Y-68851428D01*
X125227619Y-68375238D02*
X126227619Y-68375238D01*
X125227619Y-67946666D02*
X125751428Y-67946666D01*
X125846666Y-67994285D01*
X125894285Y-68089523D01*
X125894285Y-68232380D01*
X125846666Y-68327619D01*
X125799047Y-68375238D01*
X125322857Y-67470476D02*
X125275238Y-67422857D01*
X125227619Y-67470476D01*
X125275238Y-67518095D01*
X125322857Y-67470476D01*
X125227619Y-67470476D01*
X125275238Y-66565714D02*
X125227619Y-66660952D01*
X125227619Y-66851428D01*
X125275238Y-66946666D01*
X125322857Y-66994285D01*
X125418095Y-67041904D01*
X125703809Y-67041904D01*
X125799047Y-66994285D01*
X125846666Y-66946666D01*
X125894285Y-66851428D01*
X125894285Y-66660952D01*
X125846666Y-66565714D01*
X125227619Y-65994285D02*
X125275238Y-66089523D01*
X125322857Y-66137142D01*
X125418095Y-66184761D01*
X125703809Y-66184761D01*
X125799047Y-66137142D01*
X125846666Y-66089523D01*
X125894285Y-65994285D01*
X125894285Y-65851428D01*
X125846666Y-65756190D01*
X125799047Y-65708571D01*
X125703809Y-65660952D01*
X125418095Y-65660952D01*
X125322857Y-65708571D01*
X125275238Y-65756190D01*
X125227619Y-65851428D01*
X125227619Y-65994285D01*
X125227619Y-65232380D02*
X125894285Y-65232380D01*
X125799047Y-65232380D02*
X125846666Y-65184761D01*
X125894285Y-65089523D01*
X125894285Y-64946666D01*
X125846666Y-64851428D01*
X125751428Y-64803809D01*
X125227619Y-64803809D01*
X125751428Y-64803809D02*
X125846666Y-64756190D01*
X125894285Y-64660952D01*
X125894285Y-64518095D01*
X125846666Y-64422857D01*
X125751428Y-64375238D01*
X125227619Y-64375238D01*
D11*
G36*
X119980816Y-61068759D02*
X119967718Y-61042247D01*
X119944894Y-61009553D01*
X119920004Y-60985725D01*
X119888751Y-60969406D01*
X119846834Y-60959240D01*
X119789956Y-60953872D01*
X119713816Y-60951944D01*
X119681083Y-60951831D01*
X119609344Y-60952161D01*
X119558073Y-60953527D01*
X119522596Y-60956500D01*
X119498237Y-60961649D01*
X119480320Y-60969543D01*
X119468098Y-60977757D01*
X119416095Y-61030187D01*
X119384816Y-61091930D01*
X119375408Y-61158536D01*
X119389020Y-61225558D01*
X119398646Y-61246792D01*
X119425141Y-61297624D01*
X119009948Y-61297624D01*
X119029132Y-61260525D01*
X119043975Y-61211643D01*
X119047778Y-61151561D01*
X119040757Y-61091564D01*
X119024987Y-61046256D01*
X118994953Y-61008675D01*
X118951976Y-60976564D01*
X118947564Y-60974150D01*
X118926779Y-60963967D01*
X118905830Y-60956530D01*
X118880452Y-60951411D01*
X118846382Y-60948181D01*
X118799359Y-60946413D01*
X118735118Y-60945677D01*
X118662824Y-60945544D01*
X118432178Y-60945544D01*
X118432178Y-61083861D01*
X118857467Y-61083861D01*
X118890021Y-61122549D01*
X118916060Y-61162738D01*
X118920795Y-61200797D01*
X118908611Y-61239066D01*
X118896680Y-61259462D01*
X118879687Y-61274642D01*
X118854005Y-61285438D01*
X118816009Y-61292683D01*
X118762074Y-61297208D01*
X118688575Y-61299844D01*
X118639653Y-61300772D01*
X118438465Y-61303911D01*
X118434664Y-61369926D01*
X118430864Y-61435940D01*
X119679350Y-61435940D01*
X119679350Y-61297624D01*
X119609746Y-61294097D01*
X119561431Y-61282215D01*
X119531369Y-61260020D01*
X119516529Y-61225559D01*
X119513564Y-61190742D01*
X119516972Y-61151329D01*
X119530383Y-61125171D01*
X119548104Y-61108814D01*
X119567165Y-61095937D01*
X119588399Y-61088272D01*
X119618151Y-61084861D01*
X119662764Y-61084749D01*
X119700120Y-61085897D01*
X119756396Y-61088532D01*
X119793342Y-61092456D01*
X119816777Y-61099063D01*
X119832520Y-61109749D01*
X119841620Y-61119833D01*
X119861463Y-61161970D01*
X119864668Y-61211840D01*
X119857832Y-61240476D01*
X119833536Y-61268828D01*
X119786272Y-61287609D01*
X119716376Y-61296712D01*
X119679350Y-61297624D01*
X119679350Y-61435940D01*
X119991386Y-61435940D01*
X119991386Y-61366782D01*
X119989744Y-61325260D01*
X119983913Y-61303838D01*
X119972539Y-61297626D01*
X119972202Y-61297624D01*
X119961062Y-61294742D01*
X119962327Y-61282030D01*
X119974567Y-61256757D01*
X119993293Y-61197869D01*
X119995261Y-61131615D01*
X119980816Y-61068759D01*
X119980816Y-61068759D01*
G37*
X119980816Y-61068759D02*
X119967718Y-61042247D01*
X119944894Y-61009553D01*
X119920004Y-60985725D01*
X119888751Y-60969406D01*
X119846834Y-60959240D01*
X119789956Y-60953872D01*
X119713816Y-60951944D01*
X119681083Y-60951831D01*
X119609344Y-60952161D01*
X119558073Y-60953527D01*
X119522596Y-60956500D01*
X119498237Y-60961649D01*
X119480320Y-60969543D01*
X119468098Y-60977757D01*
X119416095Y-61030187D01*
X119384816Y-61091930D01*
X119375408Y-61158536D01*
X119389020Y-61225558D01*
X119398646Y-61246792D01*
X119425141Y-61297624D01*
X119009948Y-61297624D01*
X119029132Y-61260525D01*
X119043975Y-61211643D01*
X119047778Y-61151561D01*
X119040757Y-61091564D01*
X119024987Y-61046256D01*
X118994953Y-61008675D01*
X118951976Y-60976564D01*
X118947564Y-60974150D01*
X118926779Y-60963967D01*
X118905830Y-60956530D01*
X118880452Y-60951411D01*
X118846382Y-60948181D01*
X118799359Y-60946413D01*
X118735118Y-60945677D01*
X118662824Y-60945544D01*
X118432178Y-60945544D01*
X118432178Y-61083861D01*
X118857467Y-61083861D01*
X118890021Y-61122549D01*
X118916060Y-61162738D01*
X118920795Y-61200797D01*
X118908611Y-61239066D01*
X118896680Y-61259462D01*
X118879687Y-61274642D01*
X118854005Y-61285438D01*
X118816009Y-61292683D01*
X118762074Y-61297208D01*
X118688575Y-61299844D01*
X118639653Y-61300772D01*
X118438465Y-61303911D01*
X118434664Y-61369926D01*
X118430864Y-61435940D01*
X119679350Y-61435940D01*
X119679350Y-61297624D01*
X119609746Y-61294097D01*
X119561431Y-61282215D01*
X119531369Y-61260020D01*
X119516529Y-61225559D01*
X119513564Y-61190742D01*
X119516972Y-61151329D01*
X119530383Y-61125171D01*
X119548104Y-61108814D01*
X119567165Y-61095937D01*
X119588399Y-61088272D01*
X119618151Y-61084861D01*
X119662764Y-61084749D01*
X119700120Y-61085897D01*
X119756396Y-61088532D01*
X119793342Y-61092456D01*
X119816777Y-61099063D01*
X119832520Y-61109749D01*
X119841620Y-61119833D01*
X119861463Y-61161970D01*
X119864668Y-61211840D01*
X119857832Y-61240476D01*
X119833536Y-61268828D01*
X119786272Y-61287609D01*
X119716376Y-61296712D01*
X119679350Y-61297624D01*
X119679350Y-61435940D01*
X119991386Y-61435940D01*
X119991386Y-61366782D01*
X119989744Y-61325260D01*
X119983913Y-61303838D01*
X119972539Y-61297626D01*
X119972202Y-61297624D01*
X119961062Y-61294742D01*
X119962327Y-61282030D01*
X119974567Y-61256757D01*
X119993293Y-61197869D01*
X119995261Y-61131615D01*
X119980816Y-61068759D01*
G36*
X119043445Y-60544210D02*
X119027661Y-60485055D01*
X118999052Y-60440023D01*
X118961581Y-60408246D01*
X118945589Y-60398366D01*
X118928837Y-60391073D01*
X118907408Y-60385974D01*
X118877384Y-60382679D01*
X118834846Y-60380797D01*
X118775878Y-60379937D01*
X118696560Y-60379707D01*
X118675516Y-60379703D01*
X118432178Y-60379703D01*
X118432178Y-60440059D01*
X118434874Y-60478557D01*
X118441705Y-60507023D01*
X118445917Y-60514155D01*
X118453187Y-60533652D01*
X118445917Y-60553566D01*
X118436840Y-60586353D01*
X118433187Y-60633978D01*
X118434772Y-60686764D01*
X118441411Y-60735036D01*
X118449928Y-60763218D01*
X118484937Y-60817753D01*
X118533521Y-60851835D01*
X118598118Y-60867157D01*
X118599777Y-60867299D01*
X118628434Y-60865955D01*
X118628434Y-60744356D01*
X118595839Y-60733726D01*
X118577495Y-60716410D01*
X118563621Y-60681652D01*
X118558083Y-60635773D01*
X118560809Y-60588988D01*
X118571726Y-60551514D01*
X118578731Y-60541015D01*
X118611096Y-60522668D01*
X118647889Y-60518020D01*
X118696237Y-60518020D01*
X118696237Y-60587582D01*
X118691150Y-60653667D01*
X118676737Y-60703764D01*
X118654271Y-60734929D01*
X118628434Y-60744356D01*
X118628434Y-60865955D01*
X118670353Y-60863987D01*
X118726155Y-60840710D01*
X118768353Y-60796948D01*
X118772192Y-60790899D01*
X118784691Y-60764907D01*
X118792260Y-60732735D01*
X118795939Y-60687760D01*
X118796784Y-60634331D01*
X118796831Y-60518020D01*
X118845589Y-60518020D01*
X118883419Y-60522953D01*
X118908764Y-60535543D01*
X118910113Y-60537017D01*
X118921200Y-60565034D01*
X118925497Y-60607326D01*
X118923385Y-60654064D01*
X118915244Y-60695418D01*
X118903035Y-60719957D01*
X118893254Y-60733253D01*
X118891387Y-60747294D01*
X118899400Y-60766671D01*
X118919261Y-60795976D01*
X118952937Y-60839803D01*
X118956091Y-60843825D01*
X118967764Y-60841764D01*
X118987178Y-60824568D01*
X119008752Y-60798433D01*
X119026904Y-60769552D01*
X119031191Y-60760478D01*
X119039744Y-60727380D01*
X119045845Y-60678880D01*
X119048292Y-60624695D01*
X119048297Y-60622161D01*
X119043445Y-60544210D01*
X119043445Y-60544210D01*
G37*
X119043445Y-60544210D02*
X119027661Y-60485055D01*
X118999052Y-60440023D01*
X118961581Y-60408246D01*
X118945589Y-60398366D01*
X118928837Y-60391073D01*
X118907408Y-60385974D01*
X118877384Y-60382679D01*
X118834846Y-60380797D01*
X118775878Y-60379937D01*
X118696560Y-60379707D01*
X118675516Y-60379703D01*
X118432178Y-60379703D01*
X118432178Y-60440059D01*
X118434874Y-60478557D01*
X118441705Y-60507023D01*
X118445917Y-60514155D01*
X118453187Y-60533652D01*
X118445917Y-60553566D01*
X118436840Y-60586353D01*
X118433187Y-60633978D01*
X118434772Y-60686764D01*
X118441411Y-60735036D01*
X118449928Y-60763218D01*
X118484937Y-60817753D01*
X118533521Y-60851835D01*
X118598118Y-60867157D01*
X118599777Y-60867299D01*
X118628434Y-60865955D01*
X118628434Y-60744356D01*
X118595839Y-60733726D01*
X118577495Y-60716410D01*
X118563621Y-60681652D01*
X118558083Y-60635773D01*
X118560809Y-60588988D01*
X118571726Y-60551514D01*
X118578731Y-60541015D01*
X118611096Y-60522668D01*
X118647889Y-60518020D01*
X118696237Y-60518020D01*
X118696237Y-60587582D01*
X118691150Y-60653667D01*
X118676737Y-60703764D01*
X118654271Y-60734929D01*
X118628434Y-60744356D01*
X118628434Y-60865955D01*
X118670353Y-60863987D01*
X118726155Y-60840710D01*
X118768353Y-60796948D01*
X118772192Y-60790899D01*
X118784691Y-60764907D01*
X118792260Y-60732735D01*
X118795939Y-60687760D01*
X118796784Y-60634331D01*
X118796831Y-60518020D01*
X118845589Y-60518020D01*
X118883419Y-60522953D01*
X118908764Y-60535543D01*
X118910113Y-60537017D01*
X118921200Y-60565034D01*
X118925497Y-60607326D01*
X118923385Y-60654064D01*
X118915244Y-60695418D01*
X118903035Y-60719957D01*
X118893254Y-60733253D01*
X118891387Y-60747294D01*
X118899400Y-60766671D01*
X118919261Y-60795976D01*
X118952937Y-60839803D01*
X118956091Y-60843825D01*
X118967764Y-60841764D01*
X118987178Y-60824568D01*
X119008752Y-60798433D01*
X119026904Y-60769552D01*
X119031191Y-60760478D01*
X119039744Y-60727380D01*
X119045845Y-60678880D01*
X119048292Y-60624695D01*
X119048297Y-60622161D01*
X119043445Y-60544210D01*
G36*
X119046980Y-60153356D02*
X119041340Y-60134539D01*
X119028947Y-60128473D01*
X119023353Y-60128218D01*
X119007770Y-60127129D01*
X119005324Y-60119632D01*
X119016007Y-60099381D01*
X119023306Y-60087351D01*
X119038937Y-60049400D01*
X119046666Y-60004072D01*
X119047260Y-59956544D01*
X119041487Y-59911995D01*
X119030116Y-59875602D01*
X119013912Y-59852543D01*
X118993645Y-59847996D01*
X118988157Y-59850291D01*
X118965374Y-59867020D01*
X118937353Y-59892963D01*
X118932823Y-59897655D01*
X118911995Y-59922383D01*
X118905265Y-59943718D01*
X118909962Y-59973555D01*
X118913083Y-59985508D01*
X118920579Y-60022705D01*
X118917208Y-60048859D01*
X118905319Y-60070946D01*
X118889365Y-60091178D01*
X118869300Y-60106079D01*
X118841298Y-60116434D01*
X118801533Y-60123029D01*
X118746177Y-60126649D01*
X118671406Y-60128078D01*
X118626260Y-60128218D01*
X118432178Y-60128218D01*
X118432178Y-60253960D01*
X119048317Y-60253960D01*
X119048317Y-60191089D01*
X119046980Y-60153356D01*
X119046980Y-60153356D01*
G37*
X119046980Y-60153356D02*
X119041340Y-60134539D01*
X119028947Y-60128473D01*
X119023353Y-60128218D01*
X119007770Y-60127129D01*
X119005324Y-60119632D01*
X119016007Y-60099381D01*
X119023306Y-60087351D01*
X119038937Y-60049400D01*
X119046666Y-60004072D01*
X119047260Y-59956544D01*
X119041487Y-59911995D01*
X119030116Y-59875602D01*
X119013912Y-59852543D01*
X118993645Y-59847996D01*
X118988157Y-59850291D01*
X118965374Y-59867020D01*
X118937353Y-59892963D01*
X118932823Y-59897655D01*
X118911995Y-59922383D01*
X118905265Y-59943718D01*
X118909962Y-59973555D01*
X118913083Y-59985508D01*
X118920579Y-60022705D01*
X118917208Y-60048859D01*
X118905319Y-60070946D01*
X118889365Y-60091178D01*
X118869300Y-60106079D01*
X118841298Y-60116434D01*
X118801533Y-60123029D01*
X118746177Y-60126649D01*
X118671406Y-60128078D01*
X118626260Y-60128218D01*
X118432178Y-60128218D01*
X118432178Y-60253960D01*
X119048317Y-60253960D01*
X119048317Y-60191089D01*
X119046980Y-60153356D01*
G36*
X118432178Y-59361188D02*
X118432178Y-59430346D01*
X118433355Y-59470488D01*
X118438228Y-59491394D01*
X118448814Y-59498922D01*
X118455971Y-59499505D01*
X118470324Y-59500774D01*
X118473077Y-59508779D01*
X118464229Y-59529815D01*
X118455971Y-59546173D01*
X118436403Y-59608977D01*
X118435271Y-59677248D01*
X118449865Y-59732752D01*
X118485123Y-59784438D01*
X118537165Y-59823838D01*
X118598550Y-59845413D01*
X118601982Y-59845962D01*
X118639429Y-59849167D01*
X118693187Y-59850761D01*
X118733845Y-59850633D01*
X118733845Y-59713279D01*
X118679806Y-59710097D01*
X118635265Y-59702859D01*
X118610112Y-59693060D01*
X118575740Y-59655989D01*
X118563418Y-59611974D01*
X118573382Y-59566584D01*
X118603105Y-59527797D01*
X118623095Y-59513108D01*
X118646950Y-59504519D01*
X118681770Y-59500496D01*
X118734070Y-59499505D01*
X118785861Y-59501278D01*
X118831366Y-59505963D01*
X118861819Y-59512603D01*
X118864548Y-59513710D01*
X118897000Y-59540491D01*
X118914817Y-59579579D01*
X118917694Y-59623315D01*
X118905326Y-59664038D01*
X118877407Y-59694087D01*
X118871852Y-59697204D01*
X118837978Y-59706961D01*
X118789272Y-59712277D01*
X118733845Y-59713279D01*
X118733845Y-59850633D01*
X118754460Y-59850568D01*
X118787437Y-59849664D01*
X118869019Y-59843514D01*
X118930270Y-59830733D01*
X118975551Y-59809471D01*
X119009221Y-59777878D01*
X119028986Y-59747207D01*
X119042880Y-59704354D01*
X119047646Y-59651056D01*
X119043764Y-59596480D01*
X119031718Y-59549792D01*
X119017307Y-59525124D01*
X118994122Y-59499505D01*
X119287227Y-59499505D01*
X119287227Y-59361188D01*
X118432178Y-59361188D01*
X118432178Y-59361188D01*
G37*
X118432178Y-59361188D02*
X118432178Y-59430346D01*
X118433355Y-59470488D01*
X118438228Y-59491394D01*
X118448814Y-59498922D01*
X118455971Y-59499505D01*
X118470324Y-59500774D01*
X118473077Y-59508779D01*
X118464229Y-59529815D01*
X118455971Y-59546173D01*
X118436403Y-59608977D01*
X118435271Y-59677248D01*
X118449865Y-59732752D01*
X118485123Y-59784438D01*
X118537165Y-59823838D01*
X118598550Y-59845413D01*
X118601982Y-59845962D01*
X118639429Y-59849167D01*
X118693187Y-59850761D01*
X118733845Y-59850633D01*
X118733845Y-59713279D01*
X118679806Y-59710097D01*
X118635265Y-59702859D01*
X118610112Y-59693060D01*
X118575740Y-59655989D01*
X118563418Y-59611974D01*
X118573382Y-59566584D01*
X118603105Y-59527797D01*
X118623095Y-59513108D01*
X118646950Y-59504519D01*
X118681770Y-59500496D01*
X118734070Y-59499505D01*
X118785861Y-59501278D01*
X118831366Y-59505963D01*
X118861819Y-59512603D01*
X118864548Y-59513710D01*
X118897000Y-59540491D01*
X118914817Y-59579579D01*
X118917694Y-59623315D01*
X118905326Y-59664038D01*
X118877407Y-59694087D01*
X118871852Y-59697204D01*
X118837978Y-59706961D01*
X118789272Y-59712277D01*
X118733845Y-59713279D01*
X118733845Y-59850633D01*
X118754460Y-59850568D01*
X118787437Y-59849664D01*
X118869019Y-59843514D01*
X118930270Y-59830733D01*
X118975551Y-59809471D01*
X119009221Y-59777878D01*
X119028986Y-59747207D01*
X119042880Y-59704354D01*
X119047646Y-59651056D01*
X119043764Y-59596480D01*
X119031718Y-59549792D01*
X119017307Y-59525124D01*
X118994122Y-59499505D01*
X119287227Y-59499505D01*
X119287227Y-59361188D01*
X118432178Y-59361188D01*
G36*
X119045763Y-58878476D02*
X119042029Y-58828745D01*
X118652227Y-58698709D01*
X118721386Y-58678322D01*
X118764126Y-58666054D01*
X118821885Y-58649915D01*
X118885375Y-58632488D01*
X118919430Y-58623274D01*
X119048317Y-58588612D01*
X119048317Y-58445609D01*
X118913143Y-58488354D01*
X118846658Y-58509404D01*
X118766461Y-58534833D01*
X118682807Y-58561390D01*
X118608218Y-58585098D01*
X118438465Y-58639098D01*
X118434672Y-58697402D01*
X118430878Y-58755705D01*
X118535266Y-58787321D01*
X118600111Y-58806818D01*
X118671600Y-58828096D01*
X118734737Y-58846692D01*
X118737250Y-58847426D01*
X118780031Y-58861316D01*
X118809221Y-58873571D01*
X118820259Y-58882154D01*
X118818982Y-58883918D01*
X118801870Y-58890109D01*
X118765213Y-58901872D01*
X118713622Y-58917775D01*
X118651706Y-58936386D01*
X118617648Y-58946457D01*
X118432178Y-59000993D01*
X118432178Y-59116736D01*
X118724529Y-59209263D01*
X118806538Y-59235256D01*
X118881013Y-59258934D01*
X118944456Y-59279180D01*
X118993368Y-59294874D01*
X119024251Y-59304898D01*
X119033274Y-59307945D01*
X119042513Y-59305533D01*
X119046559Y-59286592D01*
X119046154Y-59247177D01*
X119045848Y-59241007D01*
X119042029Y-59167914D01*
X118865990Y-59120043D01*
X118801789Y-59102447D01*
X118745351Y-59086723D01*
X118701578Y-59074254D01*
X118675370Y-59066426D01*
X118671097Y-59064980D01*
X118676010Y-59058986D01*
X118701468Y-59046899D01*
X118744003Y-59030107D01*
X118800150Y-59009997D01*
X118850870Y-58992997D01*
X119049496Y-58928206D01*
X119045763Y-58878476D01*
X119045763Y-58878476D01*
G37*
X119045763Y-58878476D02*
X119042029Y-58828745D01*
X118652227Y-58698709D01*
X118721386Y-58678322D01*
X118764126Y-58666054D01*
X118821885Y-58649915D01*
X118885375Y-58632488D01*
X118919430Y-58623274D01*
X119048317Y-58588612D01*
X119048317Y-58445609D01*
X118913143Y-58488354D01*
X118846658Y-58509404D01*
X118766461Y-58534833D01*
X118682807Y-58561390D01*
X118608218Y-58585098D01*
X118438465Y-58639098D01*
X118434672Y-58697402D01*
X118430878Y-58755705D01*
X118535266Y-58787321D01*
X118600111Y-58806818D01*
X118671600Y-58828096D01*
X118734737Y-58846692D01*
X118737250Y-58847426D01*
X118780031Y-58861316D01*
X118809221Y-58873571D01*
X118820259Y-58882154D01*
X118818982Y-58883918D01*
X118801870Y-58890109D01*
X118765213Y-58901872D01*
X118713622Y-58917775D01*
X118651706Y-58936386D01*
X118617648Y-58946457D01*
X118432178Y-59000993D01*
X118432178Y-59116736D01*
X118724529Y-59209263D01*
X118806538Y-59235256D01*
X118881013Y-59258934D01*
X118944456Y-59279180D01*
X118993368Y-59294874D01*
X119024251Y-59304898D01*
X119033274Y-59307945D01*
X119042513Y-59305533D01*
X119046559Y-59286592D01*
X119046154Y-59247177D01*
X119045848Y-59241007D01*
X119042029Y-59167914D01*
X118865990Y-59120043D01*
X118801789Y-59102447D01*
X118745351Y-59086723D01*
X118701578Y-59074254D01*
X118675370Y-59066426D01*
X118671097Y-59064980D01*
X118676010Y-59058986D01*
X118701468Y-59046899D01*
X118744003Y-59030107D01*
X118800150Y-59009997D01*
X118850870Y-58992997D01*
X119049496Y-58928206D01*
X119045763Y-58878476D01*
G36*
X119044583Y-58121589D02*
X119031710Y-58068589D01*
X119024890Y-58053269D01*
X119007026Y-58023572D01*
X118986907Y-58000780D01*
X118961038Y-57983917D01*
X118925927Y-57972002D01*
X118878080Y-57964058D01*
X118814004Y-57959106D01*
X118730206Y-57956169D01*
X118674232Y-57955053D01*
X118432178Y-57950948D01*
X118432178Y-58021068D01*
X118433962Y-58063607D01*
X118440058Y-58085524D01*
X118450294Y-58091188D01*
X118461363Y-58094179D01*
X118459246Y-58107549D01*
X118450371Y-58125767D01*
X118436767Y-58171376D01*
X118433101Y-58229993D01*
X118439097Y-58291646D01*
X118454479Y-58346362D01*
X118456614Y-58351270D01*
X118491745Y-58401277D01*
X118540581Y-58434244D01*
X118597667Y-58449413D01*
X118618176Y-58448254D01*
X118618176Y-58324492D01*
X118590575Y-58313587D01*
X118570796Y-58281255D01*
X118560181Y-58229090D01*
X118558772Y-58201213D01*
X118562380Y-58154753D01*
X118576403Y-58123871D01*
X118583069Y-58116336D01*
X118619334Y-58095924D01*
X118652227Y-58091188D01*
X118696237Y-58091188D01*
X118696237Y-58152487D01*
X118692605Y-58223744D01*
X118681182Y-58273724D01*
X118661176Y-58305304D01*
X118652257Y-58312374D01*
X118618176Y-58324492D01*
X118618176Y-58448254D01*
X118657544Y-58446029D01*
X118714756Y-58423337D01*
X118753420Y-58392376D01*
X118770136Y-58373624D01*
X118781122Y-58355267D01*
X118787820Y-58331381D01*
X118791674Y-58296043D01*
X118794127Y-58243331D01*
X118794832Y-58222423D01*
X118799121Y-58091188D01*
X118838842Y-58091380D01*
X118880595Y-58096463D01*
X118905842Y-58114838D01*
X118921970Y-58151961D01*
X118922258Y-58152957D01*
X118928600Y-58205590D01*
X118920316Y-58257094D01*
X118900173Y-58295370D01*
X118890227Y-58310728D01*
X118891603Y-58327270D01*
X118906013Y-58352725D01*
X118916183Y-58367672D01*
X118937912Y-58396909D01*
X118954200Y-58415020D01*
X118958863Y-58417926D01*
X118982995Y-58405960D01*
X119011815Y-58370604D01*
X119021539Y-58355247D01*
X119038286Y-58311099D01*
X119047773Y-58251602D01*
X119049905Y-58185513D01*
X119044583Y-58121589D01*
X119044583Y-58121589D01*
G37*
X119044583Y-58121589D02*
X119031710Y-58068589D01*
X119024890Y-58053269D01*
X119007026Y-58023572D01*
X118986907Y-58000780D01*
X118961038Y-57983917D01*
X118925927Y-57972002D01*
X118878080Y-57964058D01*
X118814004Y-57959106D01*
X118730206Y-57956169D01*
X118674232Y-57955053D01*
X118432178Y-57950948D01*
X118432178Y-58021068D01*
X118433962Y-58063607D01*
X118440058Y-58085524D01*
X118450294Y-58091188D01*
X118461363Y-58094179D01*
X118459246Y-58107549D01*
X118450371Y-58125767D01*
X118436767Y-58171376D01*
X118433101Y-58229993D01*
X118439097Y-58291646D01*
X118454479Y-58346362D01*
X118456614Y-58351270D01*
X118491745Y-58401277D01*
X118540581Y-58434244D01*
X118597667Y-58449413D01*
X118618176Y-58448254D01*
X118618176Y-58324492D01*
X118590575Y-58313587D01*
X118570796Y-58281255D01*
X118560181Y-58229090D01*
X118558772Y-58201213D01*
X118562380Y-58154753D01*
X118576403Y-58123871D01*
X118583069Y-58116336D01*
X118619334Y-58095924D01*
X118652227Y-58091188D01*
X118696237Y-58091188D01*
X118696237Y-58152487D01*
X118692605Y-58223744D01*
X118681182Y-58273724D01*
X118661176Y-58305304D01*
X118652257Y-58312374D01*
X118618176Y-58324492D01*
X118618176Y-58448254D01*
X118657544Y-58446029D01*
X118714756Y-58423337D01*
X118753420Y-58392376D01*
X118770136Y-58373624D01*
X118781122Y-58355267D01*
X118787820Y-58331381D01*
X118791674Y-58296043D01*
X118794127Y-58243331D01*
X118794832Y-58222423D01*
X118799121Y-58091188D01*
X118838842Y-58091380D01*
X118880595Y-58096463D01*
X118905842Y-58114838D01*
X118921970Y-58151961D01*
X118922258Y-58152957D01*
X118928600Y-58205590D01*
X118920316Y-58257094D01*
X118900173Y-58295370D01*
X118890227Y-58310728D01*
X118891603Y-58327270D01*
X118906013Y-58352725D01*
X118916183Y-58367672D01*
X118937912Y-58396909D01*
X118954200Y-58415020D01*
X118958863Y-58417926D01*
X118982995Y-58405960D01*
X119011815Y-58370604D01*
X119021539Y-58355247D01*
X119038286Y-58311099D01*
X119047773Y-58251602D01*
X119049905Y-58185513D01*
X119044583Y-58121589D01*
G36*
X119048514Y-57524745D02*
X119038985Y-57476405D01*
X119024875Y-57448886D01*
X119001432Y-57419936D01*
X118949429Y-57461124D01*
X118917936Y-57486518D01*
X118902572Y-57503762D01*
X118900224Y-57520898D01*
X118907783Y-57545973D01*
X118912059Y-57557743D01*
X118918369Y-57605730D01*
X118904844Y-57649676D01*
X118874290Y-57681940D01*
X118864548Y-57687181D01*
X118838742Y-57692888D01*
X118791183Y-57697294D01*
X118725242Y-57700189D01*
X118644290Y-57701369D01*
X118632774Y-57701386D01*
X118432178Y-57701386D01*
X118432178Y-57839703D01*
X119048317Y-57839703D01*
X119048317Y-57770544D01*
X119047275Y-57730667D01*
X119042642Y-57709893D01*
X119032151Y-57702211D01*
X119022255Y-57701386D01*
X118996194Y-57701386D01*
X119022255Y-57668255D01*
X119040035Y-57630265D01*
X119048826Y-57579230D01*
X119048514Y-57524745D01*
X119048514Y-57524745D01*
G37*
X119048514Y-57524745D02*
X119038985Y-57476405D01*
X119024875Y-57448886D01*
X119001432Y-57419936D01*
X118949429Y-57461124D01*
X118917936Y-57486518D01*
X118902572Y-57503762D01*
X118900224Y-57520898D01*
X118907783Y-57545973D01*
X118912059Y-57557743D01*
X118918369Y-57605730D01*
X118904844Y-57649676D01*
X118874290Y-57681940D01*
X118864548Y-57687181D01*
X118838742Y-57692888D01*
X118791183Y-57697294D01*
X118725242Y-57700189D01*
X118644290Y-57701369D01*
X118632774Y-57701386D01*
X118432178Y-57701386D01*
X118432178Y-57839703D01*
X119048317Y-57839703D01*
X119048317Y-57770544D01*
X119047275Y-57730667D01*
X119042642Y-57709893D01*
X119032151Y-57702211D01*
X119022255Y-57701386D01*
X118996194Y-57701386D01*
X119022255Y-57668255D01*
X119040035Y-57630265D01*
X119048826Y-57579230D01*
X119048514Y-57524745D01*
G36*
X119045030Y-57127419D02*
X119029403Y-57067315D01*
X118997152Y-57016979D01*
X118973060Y-56992607D01*
X118916105Y-56952655D01*
X118850035Y-56929758D01*
X118768818Y-56921892D01*
X118762252Y-56921852D01*
X118696237Y-56921782D01*
X118696237Y-57301736D01*
X118661658Y-57293637D01*
X118630341Y-57279013D01*
X118597709Y-57253419D01*
X118592500Y-57248065D01*
X118564306Y-57202057D01*
X118559525Y-57149590D01*
X118578074Y-57089197D01*
X118583069Y-57078960D01*
X118598255Y-57047561D01*
X118606906Y-57026530D01*
X118607707Y-57022861D01*
X118599937Y-57010052D01*
X118580928Y-56985622D01*
X118570540Y-56973221D01*
X118546679Y-56947524D01*
X118530923Y-56939085D01*
X118516429Y-56944942D01*
X118512466Y-56948072D01*
X118495121Y-56969275D01*
X118474041Y-57004262D01*
X118461735Y-57028663D01*
X118440054Y-57097928D01*
X118433029Y-57174612D01*
X118441353Y-57247235D01*
X118447314Y-57267574D01*
X118481048Y-57330524D01*
X118532955Y-57377185D01*
X118603541Y-57407827D01*
X118693308Y-57422718D01*
X118740247Y-57424353D01*
X118808587Y-57419579D01*
X118808587Y-57299010D01*
X118803535Y-57287348D01*
X118799571Y-57256002D01*
X118797232Y-57210429D01*
X118796831Y-57179554D01*
X118797217Y-57124019D01*
X118799025Y-57088967D01*
X118803227Y-57069738D01*
X118810797Y-57061670D01*
X118821782Y-57060099D01*
X118855619Y-57070879D01*
X118889060Y-57098020D01*
X118914728Y-57133723D01*
X118925228Y-57169440D01*
X118915914Y-57217952D01*
X118888987Y-57259947D01*
X118850173Y-57289064D01*
X118808587Y-57299010D01*
X118808587Y-57419579D01*
X118839764Y-57417401D01*
X118919051Y-57395945D01*
X118978737Y-57359530D01*
X119019451Y-57307703D01*
X119041821Y-57240010D01*
X119046129Y-57203338D01*
X119045030Y-57127419D01*
X119045030Y-57127419D01*
G37*
X119045030Y-57127419D02*
X119029403Y-57067315D01*
X118997152Y-57016979D01*
X118973060Y-56992607D01*
X118916105Y-56952655D01*
X118850035Y-56929758D01*
X118768818Y-56921892D01*
X118762252Y-56921852D01*
X118696237Y-56921782D01*
X118696237Y-57301736D01*
X118661658Y-57293637D01*
X118630341Y-57279013D01*
X118597709Y-57253419D01*
X118592500Y-57248065D01*
X118564306Y-57202057D01*
X118559525Y-57149590D01*
X118578074Y-57089197D01*
X118583069Y-57078960D01*
X118598255Y-57047561D01*
X118606906Y-57026530D01*
X118607707Y-57022861D01*
X118599937Y-57010052D01*
X118580928Y-56985622D01*
X118570540Y-56973221D01*
X118546679Y-56947524D01*
X118530923Y-56939085D01*
X118516429Y-56944942D01*
X118512466Y-56948072D01*
X118495121Y-56969275D01*
X118474041Y-57004262D01*
X118461735Y-57028663D01*
X118440054Y-57097928D01*
X118433029Y-57174612D01*
X118441353Y-57247235D01*
X118447314Y-57267574D01*
X118481048Y-57330524D01*
X118532955Y-57377185D01*
X118603541Y-57407827D01*
X118693308Y-57422718D01*
X118740247Y-57424353D01*
X118808587Y-57419579D01*
X118808587Y-57299010D01*
X118803535Y-57287348D01*
X118799571Y-57256002D01*
X118797232Y-57210429D01*
X118796831Y-57179554D01*
X118797217Y-57124019D01*
X118799025Y-57088967D01*
X118803227Y-57069738D01*
X118810797Y-57061670D01*
X118821782Y-57060099D01*
X118855619Y-57070879D01*
X118889060Y-57098020D01*
X118914728Y-57133723D01*
X118925228Y-57169440D01*
X118915914Y-57217952D01*
X118888987Y-57259947D01*
X118850173Y-57289064D01*
X118808587Y-57299010D01*
X118808587Y-57419579D01*
X118839764Y-57417401D01*
X118919051Y-57395945D01*
X118978737Y-57359530D01*
X119019451Y-57307703D01*
X119041821Y-57240010D01*
X119046129Y-57203338D01*
X119045030Y-57127419D01*
G36*
X119984852Y-61698261D02*
X119955769Y-61632479D01*
X119907207Y-61582540D01*
X119839092Y-61548374D01*
X119751349Y-61529907D01*
X119737649Y-61528583D01*
X119641061Y-61527546D01*
X119556398Y-61540993D01*
X119487779Y-61568108D01*
X119465706Y-61582627D01*
X119418989Y-61633201D01*
X119388732Y-61697609D01*
X119376176Y-61769666D01*
X119382561Y-61843185D01*
X119402228Y-61899072D01*
X119435371Y-61947132D01*
X119478825Y-61986412D01*
X119479842Y-61987092D01*
X119506662Y-62003044D01*
X119533632Y-62013410D01*
X119567668Y-62019688D01*
X119615690Y-62023373D01*
X119655069Y-62024997D01*
X119690781Y-62025672D01*
X119690781Y-61899955D01*
X119655230Y-61898726D01*
X119607906Y-61894266D01*
X119577535Y-61886397D01*
X119555928Y-61872207D01*
X119543306Y-61858917D01*
X119516878Y-61811802D01*
X119513347Y-61762505D01*
X119532361Y-61716593D01*
X119553669Y-61693638D01*
X119575141Y-61677096D01*
X119595687Y-61667421D01*
X119622426Y-61663174D01*
X119662477Y-61662920D01*
X119699362Y-61664228D01*
X119752053Y-61667043D01*
X119786228Y-61671505D01*
X119808520Y-61679548D01*
X119825558Y-61693103D01*
X119835297Y-61703845D01*
X119860877Y-61748777D01*
X119862153Y-61797249D01*
X119847001Y-61837894D01*
X119815358Y-61872567D01*
X119763380Y-61893224D01*
X119690781Y-61899955D01*
X119690781Y-62025672D01*
X119733379Y-62026479D01*
X119791944Y-62023948D01*
X119835993Y-62016362D01*
X119870752Y-62002681D01*
X119901449Y-61981865D01*
X119910564Y-61974147D01*
X119955979Y-61925889D01*
X119982507Y-61874128D01*
X119993621Y-61810828D01*
X119994529Y-61779961D01*
X119984852Y-61698261D01*
X119984852Y-61698261D01*
G37*
X119984852Y-61698261D02*
X119955769Y-61632479D01*
X119907207Y-61582540D01*
X119839092Y-61548374D01*
X119751349Y-61529907D01*
X119737649Y-61528583D01*
X119641061Y-61527546D01*
X119556398Y-61540993D01*
X119487779Y-61568108D01*
X119465706Y-61582627D01*
X119418989Y-61633201D01*
X119388732Y-61697609D01*
X119376176Y-61769666D01*
X119382561Y-61843185D01*
X119402228Y-61899072D01*
X119435371Y-61947132D01*
X119478825Y-61986412D01*
X119479842Y-61987092D01*
X119506662Y-62003044D01*
X119533632Y-62013410D01*
X119567668Y-62019688D01*
X119615690Y-62023373D01*
X119655069Y-62024997D01*
X119690781Y-62025672D01*
X119690781Y-61899955D01*
X119655230Y-61898726D01*
X119607906Y-61894266D01*
X119577535Y-61886397D01*
X119555928Y-61872207D01*
X119543306Y-61858917D01*
X119516878Y-61811802D01*
X119513347Y-61762505D01*
X119532361Y-61716593D01*
X119553669Y-61693638D01*
X119575141Y-61677096D01*
X119595687Y-61667421D01*
X119622426Y-61663174D01*
X119662477Y-61662920D01*
X119699362Y-61664228D01*
X119752053Y-61667043D01*
X119786228Y-61671505D01*
X119808520Y-61679548D01*
X119825558Y-61693103D01*
X119835297Y-61703845D01*
X119860877Y-61748777D01*
X119862153Y-61797249D01*
X119847001Y-61837894D01*
X119815358Y-61872567D01*
X119763380Y-61893224D01*
X119690781Y-61899955D01*
X119690781Y-62025672D01*
X119733379Y-62026479D01*
X119791944Y-62023948D01*
X119835993Y-62016362D01*
X119870752Y-62002681D01*
X119901449Y-61981865D01*
X119910564Y-61974147D01*
X119955979Y-61925889D01*
X119982507Y-61874128D01*
X119993621Y-61810828D01*
X119994529Y-61779961D01*
X119984852Y-61698261D01*
G36*
X119977386Y-60516699D02*
X119971486Y-60504168D01*
X119939717Y-60460799D01*
X119893354Y-60419790D01*
X119842304Y-60389168D01*
X119818834Y-60380459D01*
X119776909Y-60372512D01*
X119726243Y-60367774D01*
X119705321Y-60367199D01*
X119639307Y-60367129D01*
X119639307Y-60747083D01*
X119604727Y-60738983D01*
X119563830Y-60719104D01*
X119528486Y-60684347D01*
X119505718Y-60642998D01*
X119500990Y-60616649D01*
X119506727Y-60580916D01*
X119521118Y-60538282D01*
X119527738Y-60523799D01*
X119554487Y-60470240D01*
X119519624Y-60424533D01*
X119496045Y-60398158D01*
X119476583Y-60384124D01*
X119470871Y-60383414D01*
X119457027Y-60395951D01*
X119435988Y-60423428D01*
X119419575Y-60448366D01*
X119390070Y-60515664D01*
X119376716Y-60591110D01*
X119380188Y-60665888D01*
X119398337Y-60725495D01*
X119437216Y-60786941D01*
X119488405Y-60830608D01*
X119554633Y-60857926D01*
X119638629Y-60870322D01*
X119677064Y-60871421D01*
X119765139Y-60867022D01*
X119767701Y-60866482D01*
X119767701Y-60740582D01*
X119759442Y-60737115D01*
X119754887Y-60722863D01*
X119752935Y-60693470D01*
X119752483Y-60644575D01*
X119752475Y-60625748D01*
X119753157Y-60568467D01*
X119755636Y-60532141D01*
X119760557Y-60512604D01*
X119768566Y-60505690D01*
X119771138Y-60505445D01*
X119791577Y-60513336D01*
X119820211Y-60533085D01*
X119830237Y-60541575D01*
X119858592Y-60573094D01*
X119869741Y-60605949D01*
X119870673Y-60623651D01*
X119859019Y-60671539D01*
X119827715Y-60711699D01*
X119782248Y-60737173D01*
X119780767Y-60737625D01*
X119767701Y-60740582D01*
X119767701Y-60866482D01*
X119834490Y-60852392D01*
X119889975Y-60826038D01*
X119929361Y-60793807D01*
X119972069Y-60734217D01*
X119994891Y-60664168D01*
X119996954Y-60589661D01*
X119977386Y-60516699D01*
X119977386Y-60516699D01*
G37*
X119977386Y-60516699D02*
X119971486Y-60504168D01*
X119939717Y-60460799D01*
X119893354Y-60419790D01*
X119842304Y-60389168D01*
X119818834Y-60380459D01*
X119776909Y-60372512D01*
X119726243Y-60367774D01*
X119705321Y-60367199D01*
X119639307Y-60367129D01*
X119639307Y-60747083D01*
X119604727Y-60738983D01*
X119563830Y-60719104D01*
X119528486Y-60684347D01*
X119505718Y-60642998D01*
X119500990Y-60616649D01*
X119506727Y-60580916D01*
X119521118Y-60538282D01*
X119527738Y-60523799D01*
X119554487Y-60470240D01*
X119519624Y-60424533D01*
X119496045Y-60398158D01*
X119476583Y-60384124D01*
X119470871Y-60383414D01*
X119457027Y-60395951D01*
X119435988Y-60423428D01*
X119419575Y-60448366D01*
X119390070Y-60515664D01*
X119376716Y-60591110D01*
X119380188Y-60665888D01*
X119398337Y-60725495D01*
X119437216Y-60786941D01*
X119488405Y-60830608D01*
X119554633Y-60857926D01*
X119638629Y-60870322D01*
X119677064Y-60871421D01*
X119765139Y-60867022D01*
X119767701Y-60866482D01*
X119767701Y-60740582D01*
X119759442Y-60737115D01*
X119754887Y-60722863D01*
X119752935Y-60693470D01*
X119752483Y-60644575D01*
X119752475Y-60625748D01*
X119753157Y-60568467D01*
X119755636Y-60532141D01*
X119760557Y-60512604D01*
X119768566Y-60505690D01*
X119771138Y-60505445D01*
X119791577Y-60513336D01*
X119820211Y-60533085D01*
X119830237Y-60541575D01*
X119858592Y-60573094D01*
X119869741Y-60605949D01*
X119870673Y-60623651D01*
X119859019Y-60671539D01*
X119827715Y-60711699D01*
X119782248Y-60737173D01*
X119780767Y-60737625D01*
X119767701Y-60740582D01*
X119767701Y-60866482D01*
X119834490Y-60852392D01*
X119889975Y-60826038D01*
X119929361Y-60793807D01*
X119972069Y-60734217D01*
X119994891Y-60664168D01*
X119996954Y-60589661D01*
X119977386Y-60516699D01*
G36*
X119993548Y-59145983D02*
X119984518Y-59098366D01*
X119965630Y-59048966D01*
X119963223Y-59043688D01*
X119943524Y-59006226D01*
X119925219Y-58980283D01*
X119913492Y-58971897D01*
X119894368Y-58979883D01*
X119866150Y-58999280D01*
X119855616Y-59007890D01*
X119814153Y-59043372D01*
X119841142Y-59089115D01*
X119859122Y-59132650D01*
X119868733Y-59182950D01*
X119869340Y-59231188D01*
X119860309Y-59268533D01*
X119854673Y-59277495D01*
X119828829Y-59294563D01*
X119799059Y-59296637D01*
X119775803Y-59283866D01*
X119771292Y-59276312D01*
X119765691Y-59253675D01*
X119759108Y-59213885D01*
X119752817Y-59164834D01*
X119751830Y-59155785D01*
X119738202Y-59077004D01*
X119715054Y-59019864D01*
X119680248Y-58981970D01*
X119631646Y-58960921D01*
X119572282Y-58954365D01*
X119504802Y-58963423D01*
X119451812Y-58992836D01*
X119413217Y-59042722D01*
X119388919Y-59113200D01*
X119379333Y-59191435D01*
X119379448Y-59255234D01*
X119388155Y-59306984D01*
X119400175Y-59342327D01*
X119421120Y-59386983D01*
X119445426Y-59428253D01*
X119456124Y-59442921D01*
X119486916Y-59480643D01*
X119532951Y-59435148D01*
X119578987Y-59389653D01*
X119544757Y-59337928D01*
X119519048Y-59286048D01*
X119505601Y-59230649D01*
X119504182Y-59177395D01*
X119514557Y-59131951D01*
X119536493Y-59099984D01*
X119555002Y-59089662D01*
X119584686Y-59091211D01*
X119607385Y-59116860D01*
X119623060Y-59166540D01*
X119630305Y-59220969D01*
X119644127Y-59304736D01*
X119670204Y-59366967D01*
X119709301Y-59408493D01*
X119762180Y-59430147D01*
X119824874Y-59433147D01*
X119890358Y-59418329D01*
X119939856Y-59384546D01*
X119973592Y-59331495D01*
X119991793Y-59258874D01*
X119995361Y-59205072D01*
X119993548Y-59145983D01*
X119993548Y-59145983D01*
G37*
X119993548Y-59145983D02*
X119984518Y-59098366D01*
X119965630Y-59048966D01*
X119963223Y-59043688D01*
X119943524Y-59006226D01*
X119925219Y-58980283D01*
X119913492Y-58971897D01*
X119894368Y-58979883D01*
X119866150Y-58999280D01*
X119855616Y-59007890D01*
X119814153Y-59043372D01*
X119841142Y-59089115D01*
X119859122Y-59132650D01*
X119868733Y-59182950D01*
X119869340Y-59231188D01*
X119860309Y-59268533D01*
X119854673Y-59277495D01*
X119828829Y-59294563D01*
X119799059Y-59296637D01*
X119775803Y-59283866D01*
X119771292Y-59276312D01*
X119765691Y-59253675D01*
X119759108Y-59213885D01*
X119752817Y-59164834D01*
X119751830Y-59155785D01*
X119738202Y-59077004D01*
X119715054Y-59019864D01*
X119680248Y-58981970D01*
X119631646Y-58960921D01*
X119572282Y-58954365D01*
X119504802Y-58963423D01*
X119451812Y-58992836D01*
X119413217Y-59042722D01*
X119388919Y-59113200D01*
X119379333Y-59191435D01*
X119379448Y-59255234D01*
X119388155Y-59306984D01*
X119400175Y-59342327D01*
X119421120Y-59386983D01*
X119445426Y-59428253D01*
X119456124Y-59442921D01*
X119486916Y-59480643D01*
X119532951Y-59435148D01*
X119578987Y-59389653D01*
X119544757Y-59337928D01*
X119519048Y-59286048D01*
X119505601Y-59230649D01*
X119504182Y-59177395D01*
X119514557Y-59131951D01*
X119536493Y-59099984D01*
X119555002Y-59089662D01*
X119584686Y-59091211D01*
X119607385Y-59116860D01*
X119623060Y-59166540D01*
X119630305Y-59220969D01*
X119644127Y-59304736D01*
X119670204Y-59366967D01*
X119709301Y-59408493D01*
X119762180Y-59430147D01*
X119824874Y-59433147D01*
X119890358Y-59418329D01*
X119939856Y-59384546D01*
X119973592Y-59331495D01*
X119991793Y-59258874D01*
X119995361Y-59205072D01*
X119993548Y-59145983D01*
G36*
X119983945Y-58549238D02*
X119949308Y-58485637D01*
X119894628Y-58435877D01*
X119850158Y-58412432D01*
X119810879Y-58402366D01*
X119754884Y-58395844D01*
X119690379Y-58393049D01*
X119625571Y-58394164D01*
X119568666Y-58399374D01*
X119538273Y-58405459D01*
X119496694Y-58425986D01*
X119452532Y-58461537D01*
X119413913Y-58504381D01*
X119388966Y-58546789D01*
X119388570Y-58547823D01*
X119377669Y-58600447D01*
X119377399Y-58662812D01*
X119387324Y-58722076D01*
X119395278Y-58744960D01*
X119428700Y-58803898D01*
X119472489Y-58846110D01*
X119530462Y-58873844D01*
X119606435Y-58889349D01*
X119646229Y-58892857D01*
X119696234Y-58892410D01*
X119696234Y-58757624D01*
X119623268Y-58753083D01*
X119567666Y-58740014D01*
X119532139Y-58719244D01*
X119521980Y-58704448D01*
X119514896Y-58666536D01*
X119516993Y-58621473D01*
X119527188Y-58582513D01*
X119532796Y-58572296D01*
X119565462Y-58545341D01*
X119615455Y-58527549D01*
X119676295Y-58519976D01*
X119741503Y-58523675D01*
X119780747Y-58531943D01*
X119826195Y-58555680D01*
X119854604Y-58593151D01*
X119864427Y-58638280D01*
X119854113Y-58684989D01*
X119828888Y-58720868D01*
X119808075Y-58739723D01*
X119787561Y-58750728D01*
X119759797Y-58755974D01*
X119717238Y-58757551D01*
X119696234Y-58757624D01*
X119696234Y-58892410D01*
X119752420Y-58891906D01*
X119839499Y-58874612D01*
X119907470Y-58840971D01*
X119956336Y-58790982D01*
X119986101Y-58724644D01*
X119989552Y-58710399D01*
X119997655Y-58624790D01*
X119983945Y-58549238D01*
X119983945Y-58549238D01*
G37*
X119983945Y-58549238D02*
X119949308Y-58485637D01*
X119894628Y-58435877D01*
X119850158Y-58412432D01*
X119810879Y-58402366D01*
X119754884Y-58395844D01*
X119690379Y-58393049D01*
X119625571Y-58394164D01*
X119568666Y-58399374D01*
X119538273Y-58405459D01*
X119496694Y-58425986D01*
X119452532Y-58461537D01*
X119413913Y-58504381D01*
X119388966Y-58546789D01*
X119388570Y-58547823D01*
X119377669Y-58600447D01*
X119377399Y-58662812D01*
X119387324Y-58722076D01*
X119395278Y-58744960D01*
X119428700Y-58803898D01*
X119472489Y-58846110D01*
X119530462Y-58873844D01*
X119606435Y-58889349D01*
X119646229Y-58892857D01*
X119696234Y-58892410D01*
X119696234Y-58757624D01*
X119623268Y-58753083D01*
X119567666Y-58740014D01*
X119532139Y-58719244D01*
X119521980Y-58704448D01*
X119514896Y-58666536D01*
X119516993Y-58621473D01*
X119527188Y-58582513D01*
X119532796Y-58572296D01*
X119565462Y-58545341D01*
X119615455Y-58527549D01*
X119676295Y-58519976D01*
X119741503Y-58523675D01*
X119780747Y-58531943D01*
X119826195Y-58555680D01*
X119854604Y-58593151D01*
X119864427Y-58638280D01*
X119854113Y-58684989D01*
X119828888Y-58720868D01*
X119808075Y-58739723D01*
X119787561Y-58750728D01*
X119759797Y-58755974D01*
X119717238Y-58757551D01*
X119696234Y-58757624D01*
X119696234Y-58892410D01*
X119752420Y-58891906D01*
X119839499Y-58874612D01*
X119907470Y-58840971D01*
X119956336Y-58790982D01*
X119986101Y-58724644D01*
X119989552Y-58710399D01*
X119997655Y-58624790D01*
X119983945Y-58549238D01*
G36*
X119795658Y-58166633D02*
X119703437Y-58165445D01*
X119633390Y-58161103D01*
X119582619Y-58152442D01*
X119548228Y-58138296D01*
X119527321Y-58117500D01*
X119517000Y-58088890D01*
X119514364Y-58053465D01*
X119517318Y-58016364D01*
X119528111Y-57988182D01*
X119549640Y-57967757D01*
X119584801Y-57953921D01*
X119636490Y-57945509D01*
X119707606Y-57941357D01*
X119795658Y-57940297D01*
X119991386Y-57940297D01*
X119991386Y-57801980D01*
X119387821Y-57801980D01*
X119387821Y-57871138D01*
X119389511Y-57912830D01*
X119395444Y-57934299D01*
X119406707Y-57940297D01*
X119416739Y-57943909D01*
X119414617Y-57958286D01*
X119400420Y-57987264D01*
X119378520Y-58053681D01*
X119380072Y-58124125D01*
X119403853Y-58191623D01*
X119422638Y-58223767D01*
X119442978Y-58248285D01*
X119468427Y-58266196D01*
X119502542Y-58278521D01*
X119548879Y-58286277D01*
X119610993Y-58290484D01*
X119692439Y-58292160D01*
X119755422Y-58292376D01*
X119991386Y-58292376D01*
X119991386Y-58166633D01*
X119795658Y-58166633D01*
X119795658Y-58166633D01*
G37*
X119795658Y-58166633D02*
X119703437Y-58165445D01*
X119633390Y-58161103D01*
X119582619Y-58152442D01*
X119548228Y-58138296D01*
X119527321Y-58117500D01*
X119517000Y-58088890D01*
X119514364Y-58053465D01*
X119517318Y-58016364D01*
X119528111Y-57988182D01*
X119549640Y-57967757D01*
X119584801Y-57953921D01*
X119636490Y-57945509D01*
X119707606Y-57941357D01*
X119795658Y-57940297D01*
X119991386Y-57940297D01*
X119991386Y-57801980D01*
X119387821Y-57801980D01*
X119387821Y-57871138D01*
X119389511Y-57912830D01*
X119395444Y-57934299D01*
X119406707Y-57940297D01*
X119416739Y-57943909D01*
X119414617Y-57958286D01*
X119400420Y-57987264D01*
X119378520Y-58053681D01*
X119380072Y-58124125D01*
X119403853Y-58191623D01*
X119422638Y-58223767D01*
X119442978Y-58248285D01*
X119468427Y-58266196D01*
X119502542Y-58278521D01*
X119548879Y-58286277D01*
X119610993Y-58290484D01*
X119692439Y-58292160D01*
X119755422Y-58292376D01*
X119991386Y-58292376D01*
X119991386Y-58166633D01*
X119795658Y-58166633D01*
G36*
X119986120Y-56942774D02*
X119955170Y-56869920D01*
X119940105Y-56846973D01*
X119916952Y-56817646D01*
X119898747Y-56799236D01*
X119892817Y-56796039D01*
X119879660Y-56805065D01*
X119857333Y-56828163D01*
X119841750Y-56846656D01*
X119801074Y-56897272D01*
X119834705Y-56937240D01*
X119856416Y-56968126D01*
X119863910Y-56998241D01*
X119862080Y-57032708D01*
X119848472Y-57087439D01*
X119820228Y-57125114D01*
X119774567Y-57148009D01*
X119708711Y-57158403D01*
X119708669Y-57158405D01*
X119635061Y-57157506D01*
X119581054Y-57143537D01*
X119544284Y-57115672D01*
X119531832Y-57096675D01*
X119516327Y-57046224D01*
X119516317Y-56992337D01*
X119531362Y-56945454D01*
X119538713Y-56934356D01*
X119557489Y-56906524D01*
X119560566Y-56884764D01*
X119546591Y-56861296D01*
X119521490Y-56835351D01*
X119479120Y-56794284D01*
X119441536Y-56839879D01*
X119399118Y-56910326D01*
X119378215Y-56989767D01*
X119379728Y-57072785D01*
X119393589Y-57127306D01*
X119427865Y-57191030D01*
X119481788Y-57241995D01*
X119519851Y-57265149D01*
X119574464Y-57283901D01*
X119643631Y-57293285D01*
X119718593Y-57293357D01*
X119790591Y-57284176D01*
X119850863Y-57265801D01*
X119857042Y-57262907D01*
X119917649Y-57220048D01*
X119961776Y-57162021D01*
X119988507Y-57093409D01*
X119996927Y-57018799D01*
X119986120Y-56942774D01*
X119986120Y-56942774D01*
G37*
X119986120Y-56942774D02*
X119955170Y-56869920D01*
X119940105Y-56846973D01*
X119916952Y-56817646D01*
X119898747Y-56799236D01*
X119892817Y-56796039D01*
X119879660Y-56805065D01*
X119857333Y-56828163D01*
X119841750Y-56846656D01*
X119801074Y-56897272D01*
X119834705Y-56937240D01*
X119856416Y-56968126D01*
X119863910Y-56998241D01*
X119862080Y-57032708D01*
X119848472Y-57087439D01*
X119820228Y-57125114D01*
X119774567Y-57148009D01*
X119708711Y-57158403D01*
X119708669Y-57158405D01*
X119635061Y-57157506D01*
X119581054Y-57143537D01*
X119544284Y-57115672D01*
X119531832Y-57096675D01*
X119516327Y-57046224D01*
X119516317Y-56992337D01*
X119531362Y-56945454D01*
X119538713Y-56934356D01*
X119557489Y-56906524D01*
X119560566Y-56884764D01*
X119546591Y-56861296D01*
X119521490Y-56835351D01*
X119479120Y-56794284D01*
X119441536Y-56839879D01*
X119399118Y-56910326D01*
X119378215Y-56989767D01*
X119379728Y-57072785D01*
X119393589Y-57127306D01*
X119427865Y-57191030D01*
X119481788Y-57241995D01*
X119519851Y-57265149D01*
X119574464Y-57283901D01*
X119643631Y-57293285D01*
X119718593Y-57293357D01*
X119790591Y-57284176D01*
X119850863Y-57265801D01*
X119857042Y-57262907D01*
X119917649Y-57220048D01*
X119961776Y-57162021D01*
X119988507Y-57093409D01*
X119996927Y-57018799D01*
X119986120Y-56942774D01*
G36*
X119993543Y-56482102D02*
X119985721Y-56449904D01*
X119957079Y-56388175D01*
X119913333Y-56335390D01*
X119860883Y-56298859D01*
X119849107Y-56293840D01*
X119818260Y-56286955D01*
X119772629Y-56282136D01*
X119726508Y-56280495D01*
X119639307Y-56280495D01*
X119639307Y-56462822D01*
X119639022Y-56538021D01*
X119637296Y-56590997D01*
X119632819Y-56624675D01*
X119624280Y-56641980D01*
X119610370Y-56645837D01*
X119589778Y-56639171D01*
X119565685Y-56627230D01*
X119525475Y-56593920D01*
X119505442Y-56547632D01*
X119506095Y-56491056D01*
X119527899Y-56426969D01*
X119554807Y-56371583D01*
X119518468Y-56325625D01*
X119482128Y-56279667D01*
X119442181Y-56322904D01*
X119404437Y-56380626D01*
X119381680Y-56451614D01*
X119375312Y-56527971D01*
X119386732Y-56601801D01*
X119390607Y-56613713D01*
X119424494Y-56678601D01*
X119475014Y-56726870D01*
X119543675Y-56759535D01*
X119631986Y-56777615D01*
X119633879Y-56777825D01*
X119730122Y-56779444D01*
X119764458Y-56772900D01*
X119764458Y-56645148D01*
X119759178Y-56633416D01*
X119755133Y-56601562D01*
X119752824Y-56554603D01*
X119752475Y-56524846D01*
X119752694Y-56469352D01*
X119754084Y-56434654D01*
X119757749Y-56416399D01*
X119764790Y-56410234D01*
X119776310Y-56411805D01*
X119780767Y-56413122D01*
X119822645Y-56435618D01*
X119856396Y-56470997D01*
X119871227Y-56502220D01*
X119870332Y-56543699D01*
X119851836Y-56585731D01*
X119821214Y-56620988D01*
X119783938Y-56642146D01*
X119764458Y-56645148D01*
X119764458Y-56772900D01*
X119814771Y-56763310D01*
X119885809Y-56731302D01*
X119941221Y-56685299D01*
X119978991Y-56627179D01*
X119997104Y-56558820D01*
X119993543Y-56482102D01*
X119993543Y-56482102D01*
G37*
X119993543Y-56482102D02*
X119985721Y-56449904D01*
X119957079Y-56388175D01*
X119913333Y-56335390D01*
X119860883Y-56298859D01*
X119849107Y-56293840D01*
X119818260Y-56286955D01*
X119772629Y-56282136D01*
X119726508Y-56280495D01*
X119639307Y-56280495D01*
X119639307Y-56462822D01*
X119639022Y-56538021D01*
X119637296Y-56590997D01*
X119632819Y-56624675D01*
X119624280Y-56641980D01*
X119610370Y-56645837D01*
X119589778Y-56639171D01*
X119565685Y-56627230D01*
X119525475Y-56593920D01*
X119505442Y-56547632D01*
X119506095Y-56491056D01*
X119527899Y-56426969D01*
X119554807Y-56371583D01*
X119518468Y-56325625D01*
X119482128Y-56279667D01*
X119442181Y-56322904D01*
X119404437Y-56380626D01*
X119381680Y-56451614D01*
X119375312Y-56527971D01*
X119386732Y-56601801D01*
X119390607Y-56613713D01*
X119424494Y-56678601D01*
X119475014Y-56726870D01*
X119543675Y-56759535D01*
X119631986Y-56777615D01*
X119633879Y-56777825D01*
X119730122Y-56779444D01*
X119764458Y-56772900D01*
X119764458Y-56645148D01*
X119759178Y-56633416D01*
X119755133Y-56601562D01*
X119752824Y-56554603D01*
X119752475Y-56524846D01*
X119752694Y-56469352D01*
X119754084Y-56434654D01*
X119757749Y-56416399D01*
X119764790Y-56410234D01*
X119776310Y-56411805D01*
X119780767Y-56413122D01*
X119822645Y-56435618D01*
X119856396Y-56470997D01*
X119871227Y-56502220D01*
X119870332Y-56543699D01*
X119851836Y-56585731D01*
X119821214Y-56620988D01*
X119783938Y-56642146D01*
X119764458Y-56645148D01*
X119764458Y-56772900D01*
X119814771Y-56763310D01*
X119885809Y-56731302D01*
X119941221Y-56685299D01*
X119978991Y-56627179D01*
X119997104Y-56558820D01*
X119993543Y-56482102D01*
G36*
X119980998Y-59914012D02*
X119966050Y-59882717D01*
X119944459Y-59852409D01*
X119919609Y-59829318D01*
X119887913Y-59812500D01*
X119845786Y-59801006D01*
X119789642Y-59793891D01*
X119715894Y-59790207D01*
X119620956Y-59789008D01*
X119611015Y-59788989D01*
X119387821Y-59788713D01*
X119387821Y-59927030D01*
X119593582Y-59927030D01*
X119669811Y-59927128D01*
X119725061Y-59927809D01*
X119763499Y-59929651D01*
X119789294Y-59933233D01*
X119806616Y-59939132D01*
X119819632Y-59947927D01*
X119832493Y-59960180D01*
X119860127Y-60003047D01*
X119865255Y-60049843D01*
X119847783Y-60094424D01*
X119834779Y-60109928D01*
X119822553Y-60121310D01*
X119809460Y-60129481D01*
X119791385Y-60134974D01*
X119764213Y-60138320D01*
X119723830Y-60140051D01*
X119666121Y-60140697D01*
X119595868Y-60140792D01*
X119387821Y-60140792D01*
X119387821Y-60279109D01*
X119991386Y-60279109D01*
X119991386Y-60209950D01*
X119989744Y-60168428D01*
X119983913Y-60147006D01*
X119972539Y-60140795D01*
X119972202Y-60140792D01*
X119961062Y-60137910D01*
X119962326Y-60125199D01*
X119974566Y-60099926D01*
X119992576Y-60042605D01*
X119994579Y-59977037D01*
X119980998Y-59914012D01*
X119980998Y-59914012D01*
G37*
X119980998Y-59914012D02*
X119966050Y-59882717D01*
X119944459Y-59852409D01*
X119919609Y-59829318D01*
X119887913Y-59812500D01*
X119845786Y-59801006D01*
X119789642Y-59793891D01*
X119715894Y-59790207D01*
X119620956Y-59789008D01*
X119611015Y-59788989D01*
X119387821Y-59788713D01*
X119387821Y-59927030D01*
X119593582Y-59927030D01*
X119669811Y-59927128D01*
X119725061Y-59927809D01*
X119763499Y-59929651D01*
X119789294Y-59933233D01*
X119806616Y-59939132D01*
X119819632Y-59947927D01*
X119832493Y-59960180D01*
X119860127Y-60003047D01*
X119865255Y-60049843D01*
X119847783Y-60094424D01*
X119834779Y-60109928D01*
X119822553Y-60121310D01*
X119809460Y-60129481D01*
X119791385Y-60134974D01*
X119764213Y-60138320D01*
X119723830Y-60140051D01*
X119666121Y-60140697D01*
X119595868Y-60140792D01*
X119387821Y-60140792D01*
X119387821Y-60279109D01*
X119991386Y-60279109D01*
X119991386Y-60209950D01*
X119989744Y-60168428D01*
X119983913Y-60147006D01*
X119972539Y-60140795D01*
X119972202Y-60140792D01*
X119961062Y-60137910D01*
X119962326Y-60125199D01*
X119974566Y-60099926D01*
X119992576Y-60042605D01*
X119994579Y-59977037D01*
X119980998Y-59914012D01*
G36*
X119991970Y-57360540D02*
X119978755Y-57317289D01*
X119962059Y-57289442D01*
X119948855Y-57280371D01*
X119933203Y-57282868D01*
X119908615Y-57299069D01*
X119891200Y-57312768D01*
X119859717Y-57341008D01*
X119846471Y-57362225D01*
X119847336Y-57380312D01*
X119860990Y-57433965D01*
X119860370Y-57473370D01*
X119844896Y-57505368D01*
X119835839Y-57516110D01*
X119803973Y-57550495D01*
X119387821Y-57550495D01*
X119387821Y-57688812D01*
X119991386Y-57688812D01*
X119991386Y-57619653D01*
X119989744Y-57578131D01*
X119983913Y-57556709D01*
X119972539Y-57550498D01*
X119972202Y-57550495D01*
X119960287Y-57547561D01*
X119961841Y-57534296D01*
X119970437Y-57515916D01*
X119986432Y-57477954D01*
X119996055Y-57447128D01*
X119998522Y-57407464D01*
X119991970Y-57360540D01*
X119991970Y-57360540D01*
G37*
X119991970Y-57360540D02*
X119978755Y-57317289D01*
X119962059Y-57289442D01*
X119948855Y-57280371D01*
X119933203Y-57282868D01*
X119908615Y-57299069D01*
X119891200Y-57312768D01*
X119859717Y-57341008D01*
X119846471Y-57362225D01*
X119847336Y-57380312D01*
X119860990Y-57433965D01*
X119860370Y-57473370D01*
X119844896Y-57505368D01*
X119835839Y-57516110D01*
X119803973Y-57550495D01*
X119387821Y-57550495D01*
X119387821Y-57688812D01*
X119991386Y-57688812D01*
X119991386Y-57619653D01*
X119989744Y-57578131D01*
X119983913Y-57556709D01*
X119972539Y-57550498D01*
X119972202Y-57550495D01*
X119960287Y-57547561D01*
X119961841Y-57534296D01*
X119970437Y-57515916D01*
X119986432Y-57477954D01*
X119996055Y-57447128D01*
X119998522Y-57407464D01*
X119991970Y-57360540D01*
G36*
X124159982Y-58783036D02*
X123858430Y-58726188D01*
X123685488Y-58306662D01*
X123856605Y-58055016D01*
X123904250Y-57984542D01*
X123946790Y-57920837D01*
X123982285Y-57866874D01*
X124008790Y-57825627D01*
X124024364Y-57800066D01*
X124027722Y-57793105D01*
X124019086Y-57780565D01*
X123995208Y-57753769D01*
X123959141Y-57715720D01*
X123913933Y-57669421D01*
X123862636Y-57617877D01*
X123808299Y-57564091D01*
X123753972Y-57511065D01*
X123702705Y-57461805D01*
X123657549Y-57419313D01*
X123621554Y-57386593D01*
X123597770Y-57366649D01*
X123589810Y-57361881D01*
X123575135Y-57368743D01*
X123542986Y-57387980D01*
X123496508Y-57417570D01*
X123438844Y-57455490D01*
X123373140Y-57499718D01*
X123335664Y-57525346D01*
X123267232Y-57572059D01*
X123205480Y-57613568D01*
X123153481Y-57647860D01*
X123114308Y-57672920D01*
X123091035Y-57686736D01*
X123086145Y-57688812D01*
X123072245Y-57684105D01*
X123039850Y-57671277D01*
X122993515Y-57652262D01*
X122937794Y-57628997D01*
X122877242Y-57603416D01*
X122816414Y-57577455D01*
X122759864Y-57553050D01*
X122712148Y-57532137D01*
X122677819Y-57516651D01*
X122661432Y-57508528D01*
X122660788Y-57508048D01*
X122657659Y-57495293D01*
X122650679Y-57461323D01*
X122640533Y-57409660D01*
X122627908Y-57343824D01*
X122613491Y-57267336D01*
X122605177Y-57222710D01*
X122589616Y-57140979D01*
X122574808Y-57067157D01*
X122561564Y-57004979D01*
X122550695Y-56958178D01*
X122543011Y-56930491D01*
X122540573Y-56924926D01*
X122524070Y-56919474D01*
X122486800Y-56915076D01*
X122433120Y-56911728D01*
X122367388Y-56909426D01*
X122293963Y-56908168D01*
X122217204Y-56907952D01*
X122141468Y-56908773D01*
X122071114Y-56910629D01*
X122010500Y-56913518D01*
X121963984Y-56917435D01*
X121935925Y-56922378D01*
X121930084Y-56925343D01*
X121923083Y-56943066D01*
X121913073Y-56980619D01*
X121901231Y-57033036D01*
X121888733Y-57095348D01*
X121884690Y-57117100D01*
X121865480Y-57221976D01*
X121850009Y-57304820D01*
X121837663Y-57368370D01*
X121827827Y-57415363D01*
X121819886Y-57448537D01*
X121813224Y-57470629D01*
X121807227Y-57484376D01*
X121801281Y-57492516D01*
X121800106Y-57493655D01*
X121781174Y-57505023D01*
X121744331Y-57522365D01*
X121694087Y-57543950D01*
X121634954Y-57568046D01*
X121571444Y-57592921D01*
X121508068Y-57616843D01*
X121449338Y-57638081D01*
X121399765Y-57654903D01*
X121363861Y-57665578D01*
X121346138Y-57668373D01*
X121345517Y-57668140D01*
X121331030Y-57658669D01*
X121299156Y-57637182D01*
X121253211Y-57605937D01*
X121196515Y-57567193D01*
X121132383Y-57523207D01*
X121114158Y-57510681D01*
X121048086Y-57466016D01*
X120987800Y-57426712D01*
X120936765Y-57394912D01*
X120898440Y-57372755D01*
X120876289Y-57362383D01*
X120873568Y-57361881D01*
X120859264Y-57370595D01*
X120830928Y-57394675D01*
X120791604Y-57431024D01*
X120744339Y-57476547D01*
X120692177Y-57528148D01*
X120638165Y-57582733D01*
X120585347Y-57637206D01*
X120536769Y-57688471D01*
X120495477Y-57733433D01*
X120464515Y-57768996D01*
X120446930Y-57792065D01*
X120444059Y-57798446D01*
X120450822Y-57813301D01*
X120469061Y-57843714D01*
X120495703Y-57884732D01*
X120517148Y-57916291D01*
X120556497Y-57973475D01*
X120602829Y-58041194D01*
X120649087Y-58109120D01*
X120673845Y-58145639D01*
X120757453Y-58269248D01*
X120701350Y-58373009D01*
X120676772Y-58420280D01*
X120657669Y-58460477D01*
X120646773Y-58487674D01*
X120645257Y-58494598D01*
X120656451Y-58502923D01*
X120688083Y-58519346D01*
X120737235Y-58542643D01*
X120800990Y-58571586D01*
X120876429Y-58604950D01*
X120960636Y-58641509D01*
X121050692Y-58680036D01*
X121143679Y-58719306D01*
X121236680Y-58758092D01*
X121326777Y-58795170D01*
X121411052Y-58829311D01*
X121486587Y-58859292D01*
X121550466Y-58883884D01*
X121599769Y-58901864D01*
X121631579Y-58912003D01*
X121642504Y-58913634D01*
X121656439Y-58900709D01*
X121679060Y-58872411D01*
X121705667Y-58834654D01*
X121707772Y-58831485D01*
X121785886Y-58733900D01*
X121877018Y-58655214D01*
X121978255Y-58596109D01*
X122086682Y-58557268D01*
X122199386Y-58539372D01*
X122313452Y-58543103D01*
X122425966Y-58569143D01*
X122534015Y-58618175D01*
X122557655Y-58632600D01*
X122653113Y-58707631D01*
X122729768Y-58796270D01*
X122787220Y-58895451D01*
X122825071Y-59002105D01*
X122842922Y-59113164D01*
X122840375Y-59225561D01*
X122817030Y-59336227D01*
X122772490Y-59442094D01*
X122706355Y-59540095D01*
X122679513Y-59570410D01*
X122595488Y-59647562D01*
X122507034Y-59703782D01*
X122407885Y-59742347D01*
X122309697Y-59763826D01*
X122199303Y-59769128D01*
X122088360Y-59751448D01*
X121980619Y-59712581D01*
X121879831Y-59654323D01*
X121789744Y-59578469D01*
X121714108Y-59486817D01*
X121706136Y-59474772D01*
X121680026Y-59436611D01*
X121657405Y-59407601D01*
X121642961Y-59393732D01*
X121642504Y-59393531D01*
X121626879Y-59396508D01*
X121591418Y-59408311D01*
X121539038Y-59427714D01*
X121472655Y-59453488D01*
X121395186Y-59484409D01*
X121309550Y-59519249D01*
X121218663Y-59556783D01*
X121125441Y-59595783D01*
X121032803Y-59635023D01*
X120943665Y-59673276D01*
X120860945Y-59709317D01*
X120787559Y-59741917D01*
X120726425Y-59769852D01*
X120680459Y-59791895D01*
X120652579Y-59806818D01*
X120645257Y-59812828D01*
X120650959Y-59831191D01*
X120666251Y-59865552D01*
X120688401Y-59909984D01*
X120701350Y-59934417D01*
X120757453Y-60038178D01*
X120673845Y-60161787D01*
X120631013Y-60224886D01*
X120583878Y-60293970D01*
X120539497Y-60358707D01*
X120517148Y-60391134D01*
X120486523Y-60436741D01*
X120462253Y-60475360D01*
X120447413Y-60501952D01*
X120444276Y-60510590D01*
X120452739Y-60523161D01*
X120476364Y-60550984D01*
X120512698Y-60591361D01*
X120559289Y-60641595D01*
X120613683Y-60698988D01*
X120648608Y-60735286D01*
X120711004Y-60798790D01*
X120766812Y-60853673D01*
X120813646Y-60897714D01*
X120849118Y-60928695D01*
X120870839Y-60944398D01*
X120875248Y-60945905D01*
X120892015Y-60938914D01*
X120925918Y-60919594D01*
X120973524Y-60890091D01*
X121031401Y-60852545D01*
X121096116Y-60809100D01*
X121114158Y-60796745D01*
X121179733Y-60751727D01*
X121238772Y-60711340D01*
X121287958Y-60677840D01*
X121323972Y-60653486D01*
X121343498Y-60640536D01*
X121345517Y-60639285D01*
X121361078Y-60641156D01*
X121395291Y-60651087D01*
X121443645Y-60667347D01*
X121501629Y-60688205D01*
X121564730Y-60711927D01*
X121628437Y-60736784D01*
X121688239Y-60761042D01*
X121739624Y-60782971D01*
X121778081Y-60800838D01*
X121799098Y-60812913D01*
X121800106Y-60813771D01*
X121806112Y-60821154D01*
X121812052Y-60833625D01*
X121818540Y-60853920D01*
X121826191Y-60884778D01*
X121835620Y-60928934D01*
X121847441Y-60989126D01*
X121862271Y-61068093D01*
X121880723Y-61168570D01*
X121884690Y-61190325D01*
X121897147Y-61254802D01*
X121909334Y-61311011D01*
X121920074Y-61353987D01*
X121928191Y-61378760D01*
X121930084Y-61382082D01*
X121946862Y-61387556D01*
X121984355Y-61392006D01*
X122038206Y-61395428D01*
X122104056Y-61397819D01*
X122177547Y-61399177D01*
X122254320Y-61399499D01*
X122330017Y-61398781D01*
X122400280Y-61397021D01*
X122460750Y-61394216D01*
X122507070Y-61390362D01*
X122534881Y-61385457D01*
X122540573Y-61382500D01*
X122546314Y-61366037D01*
X122555655Y-61328551D01*
X122567785Y-61273775D01*
X122581893Y-61205445D01*
X122597170Y-61127294D01*
X122605177Y-61084716D01*
X122620279Y-61003929D01*
X122633960Y-60931887D01*
X122645533Y-60872111D01*
X122654313Y-60828121D01*
X122659613Y-60803439D01*
X122660788Y-60799377D01*
X122674035Y-60792511D01*
X122705943Y-60777998D01*
X122751953Y-60757771D01*
X122807508Y-60733766D01*
X122868047Y-60707918D01*
X122929014Y-60682160D01*
X122985849Y-60658427D01*
X123033994Y-60638654D01*
X123068890Y-60624776D01*
X123085979Y-60618726D01*
X123086726Y-60618614D01*
X123100207Y-60625472D01*
X123131230Y-60644698D01*
X123176711Y-60674272D01*
X123233568Y-60712173D01*
X123298717Y-60756380D01*
X123336138Y-60782079D01*
X123404753Y-60828907D01*
X123467048Y-60870499D01*
X123519871Y-60904825D01*
X123560073Y-60929857D01*
X123584500Y-60943565D01*
X123589976Y-60945544D01*
X123602722Y-60937034D01*
X123629937Y-60913507D01*
X123668572Y-60877968D01*
X123715577Y-60833423D01*
X123767905Y-60782877D01*
X123822505Y-60729336D01*
X123876330Y-60675805D01*
X123926330Y-60625289D01*
X123969457Y-60580794D01*
X124002661Y-60545325D01*
X124022894Y-60521887D01*
X124027722Y-60514046D01*
X124020933Y-60501280D01*
X124001858Y-60470744D01*
X123972439Y-60425410D01*
X123934619Y-60368244D01*
X123890339Y-60302216D01*
X123856605Y-60252410D01*
X123685488Y-60000764D01*
X123771959Y-59791001D01*
X123858430Y-59581237D01*
X124159982Y-59524389D01*
X124461534Y-59467540D01*
X124461534Y-58839885D01*
X124159982Y-58783036D01*
X124159982Y-58783036D01*
G37*
X124159982Y-58783036D02*
X123858430Y-58726188D01*
X123685488Y-58306662D01*
X123856605Y-58055016D01*
X123904250Y-57984542D01*
X123946790Y-57920837D01*
X123982285Y-57866874D01*
X124008790Y-57825627D01*
X124024364Y-57800066D01*
X124027722Y-57793105D01*
X124019086Y-57780565D01*
X123995208Y-57753769D01*
X123959141Y-57715720D01*
X123913933Y-57669421D01*
X123862636Y-57617877D01*
X123808299Y-57564091D01*
X123753972Y-57511065D01*
X123702705Y-57461805D01*
X123657549Y-57419313D01*
X123621554Y-57386593D01*
X123597770Y-57366649D01*
X123589810Y-57361881D01*
X123575135Y-57368743D01*
X123542986Y-57387980D01*
X123496508Y-57417570D01*
X123438844Y-57455490D01*
X123373140Y-57499718D01*
X123335664Y-57525346D01*
X123267232Y-57572059D01*
X123205480Y-57613568D01*
X123153481Y-57647860D01*
X123114308Y-57672920D01*
X123091035Y-57686736D01*
X123086145Y-57688812D01*
X123072245Y-57684105D01*
X123039850Y-57671277D01*
X122993515Y-57652262D01*
X122937794Y-57628997D01*
X122877242Y-57603416D01*
X122816414Y-57577455D01*
X122759864Y-57553050D01*
X122712148Y-57532137D01*
X122677819Y-57516651D01*
X122661432Y-57508528D01*
X122660788Y-57508048D01*
X122657659Y-57495293D01*
X122650679Y-57461323D01*
X122640533Y-57409660D01*
X122627908Y-57343824D01*
X122613491Y-57267336D01*
X122605177Y-57222710D01*
X122589616Y-57140979D01*
X122574808Y-57067157D01*
X122561564Y-57004979D01*
X122550695Y-56958178D01*
X122543011Y-56930491D01*
X122540573Y-56924926D01*
X122524070Y-56919474D01*
X122486800Y-56915076D01*
X122433120Y-56911728D01*
X122367388Y-56909426D01*
X122293963Y-56908168D01*
X122217204Y-56907952D01*
X122141468Y-56908773D01*
X122071114Y-56910629D01*
X122010500Y-56913518D01*
X121963984Y-56917435D01*
X121935925Y-56922378D01*
X121930084Y-56925343D01*
X121923083Y-56943066D01*
X121913073Y-56980619D01*
X121901231Y-57033036D01*
X121888733Y-57095348D01*
X121884690Y-57117100D01*
X121865480Y-57221976D01*
X121850009Y-57304820D01*
X121837663Y-57368370D01*
X121827827Y-57415363D01*
X121819886Y-57448537D01*
X121813224Y-57470629D01*
X121807227Y-57484376D01*
X121801281Y-57492516D01*
X121800106Y-57493655D01*
X121781174Y-57505023D01*
X121744331Y-57522365D01*
X121694087Y-57543950D01*
X121634954Y-57568046D01*
X121571444Y-57592921D01*
X121508068Y-57616843D01*
X121449338Y-57638081D01*
X121399765Y-57654903D01*
X121363861Y-57665578D01*
X121346138Y-57668373D01*
X121345517Y-57668140D01*
X121331030Y-57658669D01*
X121299156Y-57637182D01*
X121253211Y-57605937D01*
X121196515Y-57567193D01*
X121132383Y-57523207D01*
X121114158Y-57510681D01*
X121048086Y-57466016D01*
X120987800Y-57426712D01*
X120936765Y-57394912D01*
X120898440Y-57372755D01*
X120876289Y-57362383D01*
X120873568Y-57361881D01*
X120859264Y-57370595D01*
X120830928Y-57394675D01*
X120791604Y-57431024D01*
X120744339Y-57476547D01*
X120692177Y-57528148D01*
X120638165Y-57582733D01*
X120585347Y-57637206D01*
X120536769Y-57688471D01*
X120495477Y-57733433D01*
X120464515Y-57768996D01*
X120446930Y-57792065D01*
X120444059Y-57798446D01*
X120450822Y-57813301D01*
X120469061Y-57843714D01*
X120495703Y-57884732D01*
X120517148Y-57916291D01*
X120556497Y-57973475D01*
X120602829Y-58041194D01*
X120649087Y-58109120D01*
X120673845Y-58145639D01*
X120757453Y-58269248D01*
X120701350Y-58373009D01*
X120676772Y-58420280D01*
X120657669Y-58460477D01*
X120646773Y-58487674D01*
X120645257Y-58494598D01*
X120656451Y-58502923D01*
X120688083Y-58519346D01*
X120737235Y-58542643D01*
X120800990Y-58571586D01*
X120876429Y-58604950D01*
X120960636Y-58641509D01*
X121050692Y-58680036D01*
X121143679Y-58719306D01*
X121236680Y-58758092D01*
X121326777Y-58795170D01*
X121411052Y-58829311D01*
X121486587Y-58859292D01*
X121550466Y-58883884D01*
X121599769Y-58901864D01*
X121631579Y-58912003D01*
X121642504Y-58913634D01*
X121656439Y-58900709D01*
X121679060Y-58872411D01*
X121705667Y-58834654D01*
X121707772Y-58831485D01*
X121785886Y-58733900D01*
X121877018Y-58655214D01*
X121978255Y-58596109D01*
X122086682Y-58557268D01*
X122199386Y-58539372D01*
X122313452Y-58543103D01*
X122425966Y-58569143D01*
X122534015Y-58618175D01*
X122557655Y-58632600D01*
X122653113Y-58707631D01*
X122729768Y-58796270D01*
X122787220Y-58895451D01*
X122825071Y-59002105D01*
X122842922Y-59113164D01*
X122840375Y-59225561D01*
X122817030Y-59336227D01*
X122772490Y-59442094D01*
X122706355Y-59540095D01*
X122679513Y-59570410D01*
X122595488Y-59647562D01*
X122507034Y-59703782D01*
X122407885Y-59742347D01*
X122309697Y-59763826D01*
X122199303Y-59769128D01*
X122088360Y-59751448D01*
X121980619Y-59712581D01*
X121879831Y-59654323D01*
X121789744Y-59578469D01*
X121714108Y-59486817D01*
X121706136Y-59474772D01*
X121680026Y-59436611D01*
X121657405Y-59407601D01*
X121642961Y-59393732D01*
X121642504Y-59393531D01*
X121626879Y-59396508D01*
X121591418Y-59408311D01*
X121539038Y-59427714D01*
X121472655Y-59453488D01*
X121395186Y-59484409D01*
X121309550Y-59519249D01*
X121218663Y-59556783D01*
X121125441Y-59595783D01*
X121032803Y-59635023D01*
X120943665Y-59673276D01*
X120860945Y-59709317D01*
X120787559Y-59741917D01*
X120726425Y-59769852D01*
X120680459Y-59791895D01*
X120652579Y-59806818D01*
X120645257Y-59812828D01*
X120650959Y-59831191D01*
X120666251Y-59865552D01*
X120688401Y-59909984D01*
X120701350Y-59934417D01*
X120757453Y-60038178D01*
X120673845Y-60161787D01*
X120631013Y-60224886D01*
X120583878Y-60293970D01*
X120539497Y-60358707D01*
X120517148Y-60391134D01*
X120486523Y-60436741D01*
X120462253Y-60475360D01*
X120447413Y-60501952D01*
X120444276Y-60510590D01*
X120452739Y-60523161D01*
X120476364Y-60550984D01*
X120512698Y-60591361D01*
X120559289Y-60641595D01*
X120613683Y-60698988D01*
X120648608Y-60735286D01*
X120711004Y-60798790D01*
X120766812Y-60853673D01*
X120813646Y-60897714D01*
X120849118Y-60928695D01*
X120870839Y-60944398D01*
X120875248Y-60945905D01*
X120892015Y-60938914D01*
X120925918Y-60919594D01*
X120973524Y-60890091D01*
X121031401Y-60852545D01*
X121096116Y-60809100D01*
X121114158Y-60796745D01*
X121179733Y-60751727D01*
X121238772Y-60711340D01*
X121287958Y-60677840D01*
X121323972Y-60653486D01*
X121343498Y-60640536D01*
X121345517Y-60639285D01*
X121361078Y-60641156D01*
X121395291Y-60651087D01*
X121443645Y-60667347D01*
X121501629Y-60688205D01*
X121564730Y-60711927D01*
X121628437Y-60736784D01*
X121688239Y-60761042D01*
X121739624Y-60782971D01*
X121778081Y-60800838D01*
X121799098Y-60812913D01*
X121800106Y-60813771D01*
X121806112Y-60821154D01*
X121812052Y-60833625D01*
X121818540Y-60853920D01*
X121826191Y-60884778D01*
X121835620Y-60928934D01*
X121847441Y-60989126D01*
X121862271Y-61068093D01*
X121880723Y-61168570D01*
X121884690Y-61190325D01*
X121897147Y-61254802D01*
X121909334Y-61311011D01*
X121920074Y-61353987D01*
X121928191Y-61378760D01*
X121930084Y-61382082D01*
X121946862Y-61387556D01*
X121984355Y-61392006D01*
X122038206Y-61395428D01*
X122104056Y-61397819D01*
X122177547Y-61399177D01*
X122254320Y-61399499D01*
X122330017Y-61398781D01*
X122400280Y-61397021D01*
X122460750Y-61394216D01*
X122507070Y-61390362D01*
X122534881Y-61385457D01*
X122540573Y-61382500D01*
X122546314Y-61366037D01*
X122555655Y-61328551D01*
X122567785Y-61273775D01*
X122581893Y-61205445D01*
X122597170Y-61127294D01*
X122605177Y-61084716D01*
X122620279Y-61003929D01*
X122633960Y-60931887D01*
X122645533Y-60872111D01*
X122654313Y-60828121D01*
X122659613Y-60803439D01*
X122660788Y-60799377D01*
X122674035Y-60792511D01*
X122705943Y-60777998D01*
X122751953Y-60757771D01*
X122807508Y-60733766D01*
X122868047Y-60707918D01*
X122929014Y-60682160D01*
X122985849Y-60658427D01*
X123033994Y-60638654D01*
X123068890Y-60624776D01*
X123085979Y-60618726D01*
X123086726Y-60618614D01*
X123100207Y-60625472D01*
X123131230Y-60644698D01*
X123176711Y-60674272D01*
X123233568Y-60712173D01*
X123298717Y-60756380D01*
X123336138Y-60782079D01*
X123404753Y-60828907D01*
X123467048Y-60870499D01*
X123519871Y-60904825D01*
X123560073Y-60929857D01*
X123584500Y-60943565D01*
X123589976Y-60945544D01*
X123602722Y-60937034D01*
X123629937Y-60913507D01*
X123668572Y-60877968D01*
X123715577Y-60833423D01*
X123767905Y-60782877D01*
X123822505Y-60729336D01*
X123876330Y-60675805D01*
X123926330Y-60625289D01*
X123969457Y-60580794D01*
X124002661Y-60545325D01*
X124022894Y-60521887D01*
X124027722Y-60514046D01*
X124020933Y-60501280D01*
X124001858Y-60470744D01*
X123972439Y-60425410D01*
X123934619Y-60368244D01*
X123890339Y-60302216D01*
X123856605Y-60252410D01*
X123685488Y-60000764D01*
X123771959Y-59791001D01*
X123858430Y-59581237D01*
X124159982Y-59524389D01*
X124461534Y-59467540D01*
X124461534Y-58839885D01*
X124159982Y-58783036D01*
M02*
